<svg viewBox="0 0 500 250" width="500" height="250" xmlns="http://www.w3.org/2000/svg">
  <g transform="matrix(0.98982257,0,0,0.97046547,2.3755742,3.6353637)" stroke="#000000" fill="none">
    <g stroke-width="1.1">
      <path d="m 64.02342,255.67837 c -0.456259,-5.22095 -0.768273,-16.00578 -1.141925,-18.52599 -1.109797,-7.48534 -2.816813,-13.20892 -6.06279,-13.36202 -3.099399,1.12169 -7.236605,6.89552 -12.001761,9.64594 -6.086239,3.51295 -12.79348,4.54094 -14.325193,7.15552 -2.122203,3.62252 1.082158,10.13401 0.692058,15.09776" />
      <path d="M 63.716028,-5.4843807 C 67.089751,39.366754 69.494271,43.362836 64.444376,46.808293 63.283039,47.774478 52.717063,50.688273 46.759335,48.048098 42.160291,46.010026 32.435932,23.369698 31.010362,-5.5880072" />
    </g>
    <g stroke-width="0.55">
      <path d="m 445.13941,255.13944 c 1.45103,-6.11634 -11.98747,-10.12003 -6.15424,-17.33261 6.38274,-7.89202 -4.69714,-7.6146 7.08816,-12.81303 7.69862,-3.39582 12.99229,20.65236 12.49197,30.71363" />
      <path d="m -3.5690234,47.65402 c 1.25615,-0.16565 3.95765852,-1.595773 5.3712318,0.03422 6.6420971,7.659002 13.0822806,33.926141 16.3580136,40.916349 3.555054,7.586263 26.206051,4.610211 24.911143,12.928981 -1.994269,12.81162 8.393299,7.72484 -6.609359,22.36563 -7.510086,7.32894 -9.875236,12.33512 -1.201633,18.03942 4.972663,3.27034 14.76876,20.84527 21.717138,40.21178 5.092507,14.19382 7.852058,33.4948 19.632862,44.8151 9.575134,9.20085 14.056379,16.91589 12.90114,28.80627" />
      <path d="m 504.02028,47.085561 c -4.02061,1.329486 -15.6003,0.736202 -17.15128,5.533439 -4.331,13.484 -8.618,24.223 -8.447,38.384 0.044,3.618 3.28805,11.44126 3.34905,15.05926 -1.13359,23.93736 13.16469,23.63484 21.488,28.137" />
      <path d="m 504.34451,147.27598 c -5.052,-2.745 -26.28751,-1.49998 -28.26251,-10.30098 -8.464,-20.166 -0.413,-33.049 -6.349,-54.098 -1.505,-5.336 -5.199,-9.828 -7.143,-15.02 -0.482,-1.289 0.948,-3.155 -0.025,-4.128 -1.375,-1.375 -3.902,-0.638 -5.631,-1.528 -4.116,-2.119 -8.763,-4.281 -13.373,-4.696 -4.449,-0.401 -8.432,-6.199 0.655,-7.453 7.093,-0.979 19.523,1.662 26.332,-0.553 10.499,-3.416 23.64437,-10.940705 33.45737,-16.001705" />
      <path d="m -3.4344432,34.760142 c 1.4393932,-0.699498 3.40276939,-2.46097 5.0966798,-1.486617 4.0502075,2.329717 7.8235232,10.679365 8.3335035,16.748507 0.9753139,11.606958 15.9670919,29.165219 19.2115049,32.615653 7.054676,7.50265 20.215396,5.175565 21.029928,11.623816 1.429072,11.313259 8.174728,21.377109 3.970817,27.379049 -1.415,1.972 -5.367,5.32243 -5.367,7.74943 0,4.489 2.23201,4.95402 3.77601,9.16902 4.122,11.254 7.79133,22.861 12.15133,34.025 4.3728,18.37043 5.016911,33.68673 15.931437,45.73637 6.225063,10.48426 38.013123,22.18025 38.469333,37.30885" />
      <path d="M 479.86267,-6.1768049 C 478.7079,2.2711033 484.40005,5.6317387 485.43132,8.9328932 486.03632,10.873893 483.217,13.948 484.32,15.656 c 2.612,4.045 10.847,5.965 9.755,10.655 -1.156,4.964 -8.843,5.361 -13.779,6.63 -16.154,4.154 -33.103,4.887 -49.12,9.543 -6.782,1.971 -18.31,3.086 -18.602,10.143 -0.338,8.19 11.531,11.655 17.468,17.307 8.991,8.56 21.824,14.185 27.309,25.322 5.367,10.899 -0.51,24.702 3.047,36.318 2.796,9.132 9.647,16.545 15.459,24.124 1.056,1.377 3.932,0.647 4.721,2.192 1.025,2.008 -0.706,4.578 -0.149,6.763 0.791,3.105 12.28494,21.14277 24.142,24.8803" />
      <path d="m 118.57375,-5.3628733 c 2.417,18.3610003 19.42595,32.8890433 21.12995,51.3300433 1.53197,6.92033 15.18183,32.080601 22.45235,34.572277 C 183.96016,90.374709 214.506,79.359 223.831,105.254 c 4.114,11.424 -19.652,15.509 -25.187,26.316 -8.327,16.257 -8.556,35.637 -15.249,52.632 -4.653,11.815 -13.61075,23.33025 -19.579,35.758 -6.26809,13.05211 -17.71816,18.85273 -13.42428,35.78574" />
      <path d="m 479.86501,255.69691 c -0.6199,-3.99588 2.06084,-7.80106 -4.95989,-10.31961 -6.52003,-2.33893 -9.70492,-10.85263 -6.92512,-14.2273 2.447,-2.972 3.389,-6.963 5.683,-10.054 1.487,-2.004 4.911,-2.633 5.527,-5.052 0.769,-3.017 -1.473,-6.06 -1.911,-9.142 -1.114,-7.832 -0.471,-15.996 -2.741,-23.575 -1.851,-6.181 -6.568,-11.125 -9.388,-16.928 -1.314,-2.704 -1.548,-5.867 -2.974,-8.513 -4.742,-8.796 -12.874,-16.033 -15.46,-25.685 -2.559,-9.553 5.918,-21.304 0.631,-29.662 -7.423,-11.735 -24.209,-14.09 -34.326,-23.601 -5.34,-5.021 -7.485,-12.608 -11.019,-19.029 -1.297,-2.356 -3.727,-4.61 -3.464,-7.286 0.332,-3.386 3.754,-5.725 5.049,-8.872 0.916,-2.227 -0.194,-5.362 1.509,-7.065 1.597,-1.596 4.571,-0.317 6.68,-1.123 3.271,-1.25 5.831,-4.237 9.256,-4.966 8.621,-1.836 17.619,-1.169 26.315,-2.611 7.619,-1.263 17.287,0.204 22.511,-5.484 3.5,-3.81 -2.05956,-10.638107 -2.37356,-15.8021068 -0.157,-2.578 2.62851,-10.5908548 0.81225,-13.0628547" />
      <path d="m 89.729703,-5.0396802 c -1.529,8.772 6.733334,32.2597632 6.933334,41.1617632 0.202,8.978 6.160323,17.743687 5.520323,26.701687 -0.56012,8.433651 -0.73956,17.189765 -15.618266,27.055445 C 72.597505,98.130106 57.607609,93.117684 46.195515,83.969854 18.739803,70.598256 8.8495912,15.018794 7.8947028,-6.371933" />
      <path d="M -3.8110234,133.16744 C -0.86672625,134.50545 6.112,139.121 9.041,138.761 c 4.993,-0.614 9.815,-6.832 13.725,-3.666 5.598,4.532 1.622,14.787 5.392,20.924 3.267,5.318 11.085,6.546 14.637,11.678 7.666388,27.10799 35.066914,73.34702 33.773022,87.67055" />
      <path d="M 186.89938,255.94087 C 183.9813,245.73825 190.353,228.926 193.31,219.638 c 0.96,-3.016 1.146,-6.327 2.625,-9.125 4.628,-8.758 5.69993,-11.91891 8.50093,-21.41991 2.575,-8.736 1.0463,-20.65522 5.2463,-28.73622 5.9,-11.351 18.97199,-13.62177 23.99599,-25.38677 8.663,-20.284 5.20705,-24.62916 8.73205,-46.402161 0.736,-4.548 -5.6243,-20.702684 -7.9223,-24.695684 -14.692,-25.531 -56.69067,-2.157217 -76.26667,-14.989219 -10.355,-6.788 -4.40636,-42.0441924 -8.50936,-53.7261924" />
      <path d="M 458.45808,-5.6329552 C 458.42819,-2.39846 460.49553,11.162747 455.09994,10.043039 441.58406,11.959175 428.241,16.555 414.686,19.962 c -7.545,1.896 -17.881,-2.555 -23.119,3.197 -6.777,7.441 -5.397,19.47 -6.623,29.46 -0.324,2.638 0.885,5.32 2.064,7.702 4.261,8.604 8.402,17.402 14.168,25.079 1.956,2.604 5.636,3.266 8.406,4.979 7.93,4.904 18.736,6.973 23.692,14.871 4.678,7.455 -0.07,17.8 2.151,26.316 2.418,9.273 8.404,17.273 11.574,26.316 2.436,6.95 2.918,14.47 5.18,21.479 3.41,10.568 13.647,20.202 11.804,31.152 -1.681,9.99 1.786,9.682 -5.03,17.176 -4.185,4.6 10.87321,20.06743 9.90808,27.08421" />
      <path d="m 76.509,-5.4788368 c -0.126963,11.3956646 5.660835,32.0379628 2.988226,44.8124028 -0.793,4.995 -2.154264,27.186468 -5.723264,30.769468 -4.972876,4.992416 -9.408989,0.919726 -13.828177,0.464228 -3.7227,-0.383709 -7.43339,-1.7952 -11.442823,-6.303926 C 28.831481,49.36592 23.714,13.563302 20.151,-5.8556982" />
      <path d="m -3.4567325,146.42126 c 7.8045129,2.22631 15.7268835,6.47675 20.2385095,14.19578 1.267,2.24 -0.01933,8.45081 1.78967,10.28081 1.818,1.839 7.251602,2.97826 10.635369,4.46593 11.166988,7.53371 38.347355,39.0051 12.581184,50.64222 -5.691485,3.619 -19.247388,5.03296 -21.195388,9.52996 -1.034,2.388 -1.405173,12.4847 0.203232,19.95185" />
      <path d="M 445.24281,-3.9374369 C 444.65641,2.9304738 429.47748,8.4916601 417.28248,12.12866 410.49548,14.15266 391.1,12.794 385.38,16.972 c -5.151,3.762 -7.693,10.367 -10.004,16.312 -2.382,6.125 -5.778,13.051 -3.856,19.335 4.839,15.817 12.668,31.108 23.191,43.87 5.506,6.677 17.38,5.501 22.966,12.111 5.146,6.089 4.487,15.3 6.676,22.966 3.931,13.765 8.294,27.418 11.684,41.326 1.557,6.389 0.993,13.259 3.134,19.477 1.699,4.934 5.887,8.661 8.171,13.352 0.907,1.864 2.745,4.606 1.291,6.083 -4.508,4.58 -11.265,6.2 -16.722,9.593 -3.753,2.334 -6.523,8.294 -10.884,7.574 -4.344,-0.717 -4.432,-7.823 -7.801,-10.657 -23.057,-19.4 -45.31,-40.261 -71.147,-55.767 -3.66,-2.197 -8.599,2.946 -11.083,6.418 -8.129,11.36 -14.082,24.181 -19.9,36.88 -1.655,3.612 -3.032,7.772 -2.35,11.686 1.19,6.829 -4.286,26.177 -10.959,28.056 -25.343,7.135 -17.447,-25.372 -34.655,-33.803 -0.717,-0.351 -1.479,0.604 -2.205,0.935 -5.007,2.284 -9.781,5.148 -14.995,6.91 -6.851,2.316 -14.326,2.596 -21.045,5.271 -7.792,3.102 -14.26,9.092 -22.152,11.929 -1.789,0.643 -2.215,-2.953 -1.864,-4.821 1.32,-7.028 3.955,-14.937 6.806,-21.495 2.742,-6.307 11.045,-9.038 13.798,-15.34 5.125,-11.732 4.882,-25.236 9.192,-37.291 0.935,-2.615 4.314,-3.537 6.149,-5.622 5.898,-6.703 14.599,-12.096 17.008,-20.694 5.157,-18.405 2.37,-38.182 4.799,-57.141 0.99,-7.727 10.03,-16.441 5.433,-22.73 -9.452,-12.932 2.188,-24.746 -40.901,-25.392 -4.538,-0.068 -9.168,1.979 -13.583,0.929 -6.415,-1.525 -11.9684,-3.972942 -16.4004,-8.855942 -4.56553,-4.912588 -5.64302,-17.1906684 -6.95129,-23.8543624" />
      <path d="m -3.4930084,188.35915 c 6.6450025,3.78394 11.240455,-0.52444 14.7574554,-2.69844 2.921,-1.806 4.009,-8.474 7.049,-6.877 8.682,4.561 13.836,13.967 19.868,21.7 2.852,3.656 7.453553,5.42129 6.962553,10.03229 -0.471,4.423 -5.812,6.748 -8.967,9.884 -4.403,4.376 -16.557,4.511 -20.563,9.253 -4.089,4.841 -8.6898599,17.79597 -7.4951287,25.64691" />
    </g>
    <g>
      <path stroke-dasharray="1.8" d="m 178.94151,113.60408 c 1.464,-0.198 3.27017,-7.31531 1.88817,-7.83631 -2.912,-1.097 -10.30038,1.59579 -11.68068,4.34359 -0.94934,2.28383 7.10051,3.85672 9.79251,3.49272 z" />
      <path stroke-width="0.25" d="m 105.249,194.324 c 21.872,-5.002 16.239,-16.714 0,-25.715 -4.931,-2.733 -4.379,10.391 -6.569,15.586 -0.83036,3.66662 2.646,11.026 6.569,10.129 z" />
      <path stroke-width="0.5" d="m 105.249,204.453 c 3.5354,2.214 9.216,-1.697 11.342,-5.285 8.154,-13.761 13.768,-29.042 18.119,-44.435 0.825,-2.92 -0.335,-7.398 -3.145,-8.544 -2.649,-1.081 -4.688,3.58 -7.479,4.21 -3.71,0.837 -7.628,-0.356 -11.409,0.052 -2.548,0.275 -4.866,1.951 -7.428,1.98 -2.495,0.028 -4.847,-2.441 -7.262,-1.814 -5.011,1.301 -12.237,2.304 -13.73,7.262 -1.484,4.93 6,8.585 7.473,13.519 1.22,4.089 0.254,8.531 0.381,12.797 0.06867,3.33366 5.668944,15.5806 13.138,20.258 z" />
      <path stroke-width="0.75" d="m 85.354,177.78 c 0.943,1.921 -0.742,4.492 0.191,6.418 4.448,9.187 10.2,17.689 15.656,26.315 1.125,1.779 1.946,4.844 4.051,4.844 5.336,0 10.179,-3.204 15.256,-4.844 2.773,-0.896 6.041,-0.916 8.295,-2.764 4.809,-3.942 8.33,-9.241 12.245,-14.072 2.453,-3.027 6.621,-5.589 6.838,-9.479 0.497,-8.905 -4.095,-17.428 -4.84,-26.316 -0.373,-4.453 0.344,-9.009 1.517,-13.321 1.24,-4.557 5.918,-8.281 5.643,-12.995 -0.534,-9.147 -9.57526,-17.14896 -14.25226,-25.02796 -1.533,-2.582 -1.8603,-13.623024 -4.5133,-15.030024 -3.85182,-2.50256 -6.33594,0.484184 -6.493,0.642 -3.43596,3.482102 8.59937,32.031854 -13.31644,39.415984 -10.628,3.725 -23.359,-14.818 -32.695,-8.519 -9.782,6.6 -6.938421,26.65235 -6.305,34.835 -0.04076,2.64016 8.799982,12.40569 12.723,19.898 z" />
      <path stroke-width="1" d="m 78.977,184.159 c 2.774,6.258 4.148,13.085 7.014,19.302 1.217,2.64 4.038,4.359 5.133,7.052 1.496,3.68 -0.777,9.375 2.474,11.657 5.969,4.189 14.287,2.996 21.292,5.024 3.957,1.146 7.525,3.469 11.52,4.475 1.67,0.42 4.124,1.1 5.16,-0.276 3.201,-4.252 3.367,-10.196 6.143,-14.737 6.887,-11.266 16.61,-20.746 22.707,-32.458 1.044,-2.005 -1.983,-4.098 -2.534,-6.29 -2.117,-8.423 -6.954,-16.923 -5.451,-25.477 1.075,-6.12 8.623,-8.988 12.376,-13.94 3.833,-5.057 5.76,-11.582 10.316,-15.999 2.273,-2.204 6.317,-1.248 9.075,-2.803 2.972,-1.676 5.118,-4.516 7.753,-6.685 3.214,-2.645 16.06587,1.36762 9.79,-7.754 -17.785,-7.939 -39.147,-5.265 -56.9,-13.275 -5.858,-2.643 -22.01309,-26.410109 -24.24009,-32.438109 -2.259,-6.113 1.28158,-28.301117 -5.45199,-25.898817 -5.24872,3.97195 0.0493,18.226992 -1.78073,24.249992 -4.039,13.295 11.31581,47.233934 0.60181,56.081934 -9.005,7.436 -23.461,-1.449 -35.036,0.102 -4.267,0.572 -10.139,1.992 -11.377,6.116 -3.855625,13.01104 -3.380886,33.97136 -1.774,37.694 1.604591,7.24776 9.218,17.317 13.19,26.277 z" />
    </g>
    <g stroke-width="0.8">
      <g stroke-dasharray="3">
        <path d="m 505.11656,67.263338 c -5.443,-6.835 -10.01446,0.697167 -11.70356,5.090662 -11.1287,28.94674 7.49147,48.60368 10.95356,51.34473" />
        <path d="m -3.7622922,120.65756 c 6.040751,8.74632 24.0828572,7.6134 22.8775262,-8.89032 C 17.991234,104.32124 18.959,102.14 13.339,96.902 9.278,93.117 4.7711677,85.211347 2.7841677,78.569347 c -0.567,-5.107 -0.2332996,-11.598636 -6.632,-13.917" />
      </g>
      <path d="m 337.58862,255.63158 c 1.90979,-8.61 -11.01466,-50.51045 6.99538,-54.20058 20.00419,-0.97198 19.81472,13.63727 30.777,23.942 3.55551,3.45121 4.54391,13.27714 0.75738,20.87901 -1.94943,3.91368 -5.58212,6.88288 -9.90769,8.83209" />
      <path d="m 261.46263,255.14651 c -9.06126,-9.2172 -0.96895,-34.3979 -13.4075,-24.372 -6.565,2.318 -7.6658,1.47104 -13.5628,5.17204 -9.32138,5.77967 -22.13033,13.29786 -26.85882,19.44235" />
      <path d="M 399.64933,255.24351 C 405.34249,240.05443 380.368,204.365 362.137,190.455 c -7.662,-5.846 -17.534,-16.673 -26.144,-12.343 -10.481,5.271 -9,20.34 -15.242,32.401 -7.753,11.726 -6.62204,35.95384 -5.74001,45.21099" />
      <path d="m 210.81716,-5.5380091 c -6.6105,5.38050482 -13.90788,20.5540401 0.25912,20.8930401 8.57553,0.449634 9.77073,-3.150853 14.54972,-4.167031 3.743,-0.826 7.381,-2.262 11.198,-2.61 3.105,-0.283 6.362,1.706 9.326,0.737 6.132,-2.004 10.596,-2.844 15.646,-0.4115 5.462,2.3235 4.519,17.3205 6.503,27.6855 1.377,7.192 4.766,8.712 4.922,16.033 0.189,8.876 -3.428,17.463 -4.112,26.315 -1.352,17.504 2.631,35.693 -1.985,52.632 -2.872,10.54 -14.132,16.82 -19.531,26.316 -1.619,2.848 -0.455,6.547 -0.991,9.779 -0.921,5.55 -6.687,11.989 -3.376,16.537 6.578,9.036 19.546,11.006 28.397,17.832 4.917,3.792 8.831,8.791 12.559,13.756 2.262,3.012 1.791,11.433 5.273,9.995 5.241,-2.164 5.559,-9.94 7.497,-15.268 4.115,-11.313 3.811,-24.588 10.615,-34.519 8.786,-12.824 21.303,-23.173 34.519,-31.358 2.768,-1.714 5.801,2.972 8.582,4.664 10.875,6.617 22.088,12.757 32.374,20.257 4.483,3.269 7.044,8.81 11.676,11.864 1.229,0.81 2.798,-1.901 4.184,-1.408 1.739,0.618 2.017,3.277 3.624,4.185 4.127,2.332 9.729,2.078 13.19,5.317 3.196,2.991 1.58,14.281 5.318,12.005 5.027,-3.06 3.415,-11.437 3.415,-17.322 0,-5.822 -1.309,-11.702 -3.415,-17.13 -0.785,-2.023 -4.264,-2.214 -4.897,-4.29 -0.871,-2.859 1.443,-5.991 0.869,-8.924 -0.901,-4.603 -3.97,-8.553 -5.175,-13.086 -0.791,-2.974 1.121,-6.759 -0.75,-9.202 C 397.4,113.703 379.245,99.48 366.183,81.157 c -4.136,-5.802 -3.538,-13.813 -5.72,-20.596 -0.884,-2.748 -4.38,-5.204 -3.458,-7.939 5.112,-15.163 11.775,-30.037 20.732,-43.297 1.991,-2.947 11.3134,-5.1696718 14.7384,-6.1276718 1.449,-1.154 6.62616,-2.0405533 7.7936,-7.9933883" />
      <path d="M 370.71754,-5.1722537 C 363.78704,-1.1718223 354.6516,4.506971 351.10499,10.688369 345.27099,24.797368 341.8,37.363 342.155,52.627 c 0.151,6.511 6.38,11.396 8.814,17.437 2.616,6.491 2.952,13.878 6.285,20.031 3.148,5.812 9.813,9.256 12.778,15.163 3.059,6.093 0.134,14.919 4.812,19.879 5.46,5.789 16.781,2.941 22.205,8.764 2.906,3.12 1.544,10.789 -2.326,12.577 -3.226,1.49 -2.987,-7.354 -6.321,-8.583 -6.264,-2.308 -13.76,1.267 -19.995,-1.116 -7.015,-2.681 -11.303,-10.209 -18.083,-13.438 -2.493,-1.187 -5.553,0.242 -8.233,0.907 -8.775,2.179 -20.122,0.765 -26.038,7.603 -11.165,12.906 -12.665,31.794 -20.951,46.713 -2.57,4.628 -6.822,14.16 -11.23,11.229 -10.432,-6.936 -17.706,-19.563 -19.865,-31.903 -1.036,-5.922 10.369,-7.728 11.916,-13.537 4.147,-15.569 3.617,-32.038 4.507,-48.125 1.151,-20.809 2.26214,-47.288981 1.23514,-68.103981 0.59111,-19.656728 -16.57048,-23.8741194 -22.312,-33.4420004" />
      <path d="m 337.63657,-6.481321 c 0.603,17.544 -13.05886,37.995804 -11.87786,55.510804 0.31,4.595 0.32129,13.270517 2.77929,17.164517 3.315,5.252 11.73,6.659 13.803,12.513 3.002,8.48 3.989,18.836 0.181,26.986 -1.74,3.723 -6.886,-5.039 -8.718,-8.718 -1.4,-2.811 1.905,-7.195 -0.315,-9.416 -1.53,-1.53 -2.996,3.958 -5.16,3.94 -30.31512,-0.756303 -20.71367,-21.15819 -21.784,-41.863 -0.639,-8.965 13.90171,-16.867942 12.57971,-25.757942 -2.42585,-9.723523 -3.98095,-20.8050556 -4.50914,-29.9453415" />
    </g>
  </g>
</svg>