<svg xmlns="http://www.w3.org/2000/svg" viewBox="0 0 500 500">
  <path
    fill="none"
    stroke-width="2"
    stroke="rgba(0, 0, 0, 0.3)"
    stroke-linecap="round"
    stroke-linejoin="round"
    d="M 455.8 500 C 454.594 498.395 452.912 497.056 452.183 495.185 C 450.065 489.747 451.992 479.271 447.367 478.351 C 438.397 480.74 447.301 493.389 442.208 500.29 M 287.858 500.205 C 286.301 499.156 284.767 497.867 283.545 496.442 C 282.081 494.734 282.441 491.414 280.398 490.472 C 277.809 489.278 277.229 490.775 274.378 490.801 C 268.449 490.854 268.742 489.128 263.157 491.118 C 259.762 492.328 258.321 497.184 258.875 500.435 M 464.235 500 C 459.893 491.228 454.767 482.802 451.208 473.684 C 449.108 468.304 453.145 456.788 447.369 456.788 C 441.423 456.788 444.422 468.425 441.648 473.684 C 436.77 482.932 430.269 491.228 424.579 500 M 364.734 500.435 C 367.993 497.486 371.564 490.128 368.422 487.237 C 365.324 484.386 359.996 487.135 355.792 487.37 C 347.652 487.824 339.489 488.207 331.41 489.303 C 326.123 490.02 320.626 495.051 315.79 492.798 C 307.877 489.111 304.119 479.796 297.886 473.684 C 296.443 472.269 294.218 471.795 292.854 470.305 C 291.342 468.654 291.597 465.215 289.475 464.499 C 284.322 462.759 278.561 464.453 273.18 463.663 C 269.727 463.156 266.013 458.626 263.159 460.634 C 259.421 463.265 261.47 469.875 258.942 473.684 C 252.628 483.195 244.331 491.228 237.025 500 M 468.895 499.855 C 468.449 491.083 462.126 483.307 458.273 473.684 C 456.948 470.372 458.168 466.696 457.912 463.138 C 457.697 460.152 454.156 457.675 454.736 454.738 C 455.362 451.569 461.602 450.547 461.028 447.368 C 460.438 444.101 455.695 443.086 452.481 442.254 C 450.754 441.807 449.128 443.551 447.366 443.831 C 446.143 444.025 444.149 442.521 443.654 443.656 C 439.466 453.262 439.04 464.313 434.351 473.684 C 429.519 483.34 421.758 491.228 415.462 500 M 379.362 500 C 377.741 489.201 377.348 478.145 374.499 467.604 C 373.619 464.349 371.772 459.875 368.419 459.518 C 365.092 459.164 364.03 464.996 360.892 466.157 C 350.987 469.82 340.394 471.252 330.117 473.684 C 325.358 474.81 320.678 476.832 315.787 476.832 C 314.349 476.832 313.994 474.54 312.839 473.684 C 308.328 470.344 302.65 468.437 298.859 464.297 C 294.658 459.709 294.503 451.826 289.472 448.166 C 283.562 443.866 275.613 443.262 268.392 442.132 C 265.342 441.655 260.884 440.831 259.221 443.433 C 253.444 452.473 254.641 465.083 248.228 473.684 C 240.098 484.588 220.364 495.945 205.458 500.718 M 479.348 500.29 C 472.497 487.909 465.603 476.917 464.014 462.856 C 462.139 446.263 480.107 430.561 473.682 413.943 C 468.981 413.083 465.931 428.314 459.972 433.658 C 456.698 436.594 451.716 436.9 447.366 437.545 C 443.963 438.05 438.742 434.059 437.056 437.058 C 430.856 448.091 432.561 462.288 427.057 473.684 C 423.742 480.547 415.909 484.625 411.344 490.728 C 409.25 493.528 415.22 498.359 411.43 500.435 M 389.207 500 C 382.784 481.952 392.705 466.37 372.831 447.307 C 372.185 445.874 366.715 446.415 365.465 447.368 C 361.083 450.71 358.309 456.282 353.287 458.552 C 343.716 462.879 333.026 464.109 322.832 466.64 C 320.519 467.214 317.603 469.407 315.787 467.863 C 307.352 460.688 299.94 452.032 294.391 442.449 C 290.946 436.499 292.853 426.788 289.591 425.627 C 286.642 424.578 285.17 430.38 283.675 431.606 C 280.596 434.132 279.528 432.36 275.764 433.661 C 268.415 436.201 258.021 431.24 252.66 436.872 C 243.4 446.6 245.174 463.253 237.262 474.106 C 230.638 483.191 220.08 488.744 210.524 494.669 C 206.234 496.811 186.569 492.496 184.473 490.335 C 182.167 487.958 171.096 490.079 171.639 499.565 M 489.679 499.855 C 480.151 491.083 475.273 485.684 470.167 473.469 C 468.146 468.634 471.905 463.929 474.109 459.175 C 478.298 450.141 481.241 441.609 485.025 432.398 C 486.579 428.615 491.37 424.784 489.695 421.053 C 486.797 414.597 480.581 405.561 473.679 407.12 C 464.396 409.217 462.177 422.421 455.164 428.854 C 453.159 430.693 450.068 430.959 447.363 431.259 C 444.131 431.617 440.174 432.809 437.618 430.798 C 430.765 425.406 428.216 415.52 421.048 410.554 C 419.008 409.14 415.544 412.923 415.395 415.4 C 414.301 433.616 420.765 452.159 417.471 470.108 C 416.347 476.232 406.648 476.953 403.155 482.107 C 401.242 484.929 403.146 488.976 402.424 492.308 C 401.837 495.016 400.325 497.436 399.275 500 M 499.995 496.435 C 491.223 490.351 486.614 486.46 478.191 479.902 C 476.782 478.805 474.559 474.241 475.286 472.61 C 478.122 466.248 479.997 463.064 483.179 456.868 C 486.361 450.673 487.036 443.46 489.62 436.993 C 491.264 432.877 493.847 429.199 495.819 425.229 C 496.489 423.881 497.877 422.52 497.538 421.053 C 496.945 418.485 494.274 416.825 493.313 414.371 C 492.005 411.034 493.355 406.445 490.821 403.911 C 489.038 402.128 474.028 398.669 470.968 400.298 C 462.103 405.017 459.166 414.184 451.84 421.053 C 450.393 422.41 449.286 425.461 447.363 424.973 C 434.598 421.732 428.353 398.454 417.199 405.455 C 404.687 413.308 405.449 439.737 401.269 453.905 C 400.114 457.821 398.754 464.971 394.732 464.265 C 390.419 463.508 393.284 455.009 390.148 451.953 C 384.061 446.021 376.858 437.635 368.416 438.618 C 349.529 440.817 334.631 463.131 315.784 460.612 C 303.771 459.006 303.255 439.848 297.564 429.148 C 295.617 425.487 297.059 417.559 292.912 417.609 C 279.504 417.772 267.943 429.423 254.536 429.67 C 248.257 429.785 245.597 427.072 242.624 422.756 C 241.846 421.626 239.221 413.699 236.837 415.294 C 229.556 420.165 232.094 448.446 227.719 464.566 C 226.014 470.849 224.027 478.098 218.756 481.919 C 213.143 485.988 205.237 486.535 198.337 485.868 C 193.062 485.358 189.497 478.284 184.206 478.581 C 179.085 478.868 176.03 484.828 171.575 487.37 C 167.222 489.853 165.769 489.323 161.787 492.364 C 159.929 493.782 159.677 497.25 158.724 499.385 M -0.006 307.575 C 7.352 310.314 15.393 311.66 22.069 315.793 C 23.498 316.678 20.621 319.253 21.324 320.779 C 22.235 322.758 25.984 322.851 26.31 325.005 C 27.742 334.466 29.879 344.833 26.31 353.711 C 24.737 357.625 17.401 353.684 13.86 355.975 C 8.192 359.642 4.616 365.816 -0.006 370.737 M 499.994 392.224 C 482.288 392.901 467.369 394.578 455.044 402.423 C 450.959 405.023 452.045 415.989 447.362 414.755 C 436.452 411.88 430.123 395.301 418.938 396.78 C 407.413 398.304 405.725 411.106 399.714 421.057 C 396.83 425.832 399.314 433.854 394.731 437.035 C 391.381 439.36 387.363 433.423 383.425 432.363 C 382.47 432.106 381.574 433.279 380.586 433.228 C 376.498 433.017 372.311 430.331 368.415 431.587 C 351.945 436.898 337.698 456.596 320.89 452.479 C 306.143 448.866 309.792 421.399 296.544 413.981 C 287.077 408.68 275.337 418.582 264.773 421.057 C 263.872 421.268 263.03 422.387 262.175 422.034 C 256.179 419.561 250.076 416.93 244.993 412.9 C 241.425 410.071 239.898 398.573 236.836 401.943 C 228.893 410.685 229.554 424.467 224.699 435.235 C 222.681 439.711 217.299 442.554 216.353 447.372 C 214.662 455.983 224.092 468.325 217.146 473.688 C 209.973 479.227 199.743 468.326 190.759 467.134 C 186.895 466.621 182.997 467.941 179.163 468.647 C 171.892 469.987 165.77 468.147 160.341 473.166 C 153.146 479.818 151.168 490.886 148.12 499.901 M 499.99 429.274 C 495.693 439.782 492.175 450.643 487.1 460.798 C 484.731 465.539 479.906 468.859 482.089 473.688 C 485.816 481.932 492.591 484.101 499.99 489.308 M -0.01 299.788 C 11.028 302.858 22.772 304.045 33.103 308.997 C 35.148 309.977 32.899 313.578 33.381 315.794 C 35.31 324.657 38.131 333.305 40.31 342.11 C 41.144 345.481 40.731 349.278 42.42 352.312 C 46.703 360.004 62.706 366.33 57.904 373.709 C 52.127 382.587 36.411 373.901 26.306 377.077 C 16.699 380.097 8.762 386.968 -0.01 391.913 M 499.99 383.859 C 495.499 383.206 490.97 382.774 486.517 381.899 C 482.187 381.048 477.93 377.52 473.674 378.686 C 470.01 379.689 469.451 385.22 466.354 387.421 C 461.752 390.691 456.012 391.993 451.081 394.742 C 449.639 395.546 449.009 398.011 447.358 398.011 C 445.739 398.011 445.38 394.863 443.766 394.742 C 427.464 393.52 409.503 387.07 394.727 394.065 C 387.202 397.627 395.261 411.057 392.622 418.953 C 391.858 421.238 388.012 420.356 385.707 421.058 C 381.288 422.404 376.979 424.183 372.451 425.098 C 371.119 425.367 369.628 423.949 368.411 424.553 C 359.275 429.084 351.414 436.013 342.095 440.153 C 339.743 441.198 336.913 439.164 334.39 439.668 C 328.836 440.778 322.531 448.609 318.23 444.923 C 308.357 436.463 310.794 417.848 300.172 410.349 C 292.471 404.912 281.291 410.947 271.954 412.252 C 268.853 412.685 266.203 416.208 263.148 415.522 C 258.254 414.423 254.191 410.782 250.464 407.425 C 246.404 403.768 243.726 398.81 240.078 394.742 C 239.163 393.722 237.777 391.229 236.832 392.221 C 232.027 397.266 228.532 403.538 225.658 409.884 C 222.747 416.313 223.042 423.999 219.64 430.182 C 216.015 436.77 209.663 441.448 205.033 447.373 C 201.958 451.309 201.233 457.979 196.554 459.727 C 184.368 464.28 168.745 457.83 157.885 464.99 C 146.314 472.619 142.29 487.378 137.716 499.92 M 499.986 441.241 C 497.651 449.722 496.047 458.439 492.981 466.684 C 491.977 469.384 487.809 471.064 488.996 473.689 C 491.022 478.169 495.965 479.348 499.986 482.178 M -0.014 291.998 C 16.938 291.29 34.633 286.667 50.842 289.478 C 56.736 290.5 42.908 299.105 41.809 304.985 C 40.632 311.281 42.935 317.788 44.385 324.027 C 45.96 330.806 47.819 337.613 50.846 343.88 C 53.591 349.564 59.241 353.633 61.526 359.517 C 64.171 366.328 70.579 376.055 65.303 381.11 C 55.246 390.747 36.173 384.98 25.55 393.989 C 12.939 404.684 8.507 422.33 -0.014 436.501 M 499.986 375.492 C 493.173 373.136 486.388 370.697 479.546 368.425 C 478.031 367.922 476.337 367.915 474.926 367.169 C 474.267 366.82 474.365 365.046 473.67 365.317 C 472.528 365.762 472.615 367.602 471.707 368.425 C 463.806 375.593 457.266 385.246 447.354 389.192 C 442.161 391.26 436.833 384.659 431.245 384.534 C 419.019 384.26 405.943 383.147 394.723 388.011 C 388.789 390.584 387.433 398.775 384.787 404.676 C 383.947 406.549 385.946 409.376 384.494 410.828 C 382.419 412.903 378.673 412.033 376.072 413.392 C 367.092 418.084 358.655 423.748 349.926 428.891 C 347.328 430.422 345.106 433.333 342.091 433.414 C 336.026 433.577 330.253 430.74 324.298 429.579 C 321.477 429.029 318.061 430.026 315.775 428.284 C 313.733 426.728 314.284 423.342 313.113 421.057 C 311.737 418.371 309.369 416.238 308.182 413.463 C 306.972 410.634 308.202 406.664 306.027 404.489 C 304.58 403.042 301.938 405.618 299.932 405.213 C 296.261 404.472 293.183 400.745 289.46 401.146 C 280.342 402.128 271.99 411.595 263.144 409.175 C 252.027 406.134 246.593 392.869 236.828 386.747 C 235.118 385.675 232.286 387.451 231.298 389.211 C 224.798 400.79 221.72 414.104 215.032 425.576 C 211.907 430.937 206.226 434.342 202.224 439.084 C 198.183 443.873 196.753 451.771 190.945 454.121 C 180.689 458.27 166.921 450.645 157.881 457.023 C 142.847 467.218 130.844 484.404 125.916 500.004 M 324.076 0.004 C 324.679 17.548 324.704 35.121 325.885 52.636 C 326.195 57.231 326.08 62.3 328.538 66.194 C 331.853 71.446 340.268 72.853 342.341 78.707 C 345.343 87.187 346.33 97.543 342.522 105.693 C 340.782 109.416 335.636 100.654 333.804 96.975 C 332.404 94.164 335.709 89.78 333.489 87.559 C 331.959 86.029 330.493 91.517 328.329 91.499 C 321.212 91.441 313.612 90.793 307.386 87.346 C 304.887 85.962 306.553 81.666 305.666 78.951 C 302.765 70.073 296.709 61.952 296.045 52.636 C 295.406 43.671 303.237 35.21 301.915 26.32 C 300.461 16.539 292.784 8.776 288.219 0.004 M 499.989 466.294 L 499.989 475.042 M -0.011 283.742 C 19.271 283.913 38.608 282.786 57.835 284.256 C 63.774 284.71 73.622 283.659 74.925 289.471 C 76.114 294.774 64.682 293.847 60.85 297.7 C 56.993 301.578 55.211 307.078 52.621 311.896 C 51.963 313.119 50.639 314.485 51.127 315.786 C 57.835 333.674 66.941 350.593 73.816 368.418 C 74.467 370.106 72.746 372.201 73.517 373.838 C 74.609 376.157 77.269 377.346 78.936 379.293 C 81.323 382.08 82.775 385.742 85.658 388.012 C 89.465 391.009 96.985 390.147 98.546 394.734 C 100.146 399.435 94.262 403.714 92.593 408.391 C 91.123 412.509 93.044 419.053 89.154 421.05 C 82.859 424.281 74.566 423.496 67.927 421.05 C 64.407 419.753 65.118 413.858 62.456 411.214 C 59.806 408.583 56.355 405.879 52.621 405.85 C 46.93 405.805 41.736 409.182 36.346 411.009 C 32.961 412.157 29.21 412.689 26.305 414.772 C 24.294 416.214 23.727 418.998 22.345 421.05 C 14.954 432.024 7.441 442.915 -0.011 453.847 M 499.989 367.73 C 493.36 365.816 486.075 365.444 480.102 361.989 C 476.797 360.077 477.491 352.482 473.673 352.509 C 469.847 352.536 469.869 359.213 467.335 362.08 C 461.063 369.178 455.614 377.647 447.357 382.29 C 444.014 384.17 440.003 379.633 436.167 379.608 C 422.332 379.519 407.29 376.157 394.726 381.951 C 386.16 385.901 386.128 399.112 379.441 405.765 C 374.81 410.372 367.636 411.385 361.936 414.576 C 355.177 418.359 349.834 426.37 342.094 426.669 C 334.144 426.976 325.672 422.347 320.659 416.169 C 315.94 410.353 322.95 396.395 315.778 394.236 C 300.722 389.704 284.562 398.1 269.044 400.631 C 266.975 400.969 264.944 403.901 263.147 402.821 C 253.429 396.98 247.019 386.244 236.831 381.268 C 233.776 379.776 230.373 383.577 227.515 385.418 C 223.349 388.102 218.078 390.269 215.928 394.734 C 212.055 402.778 214.316 412.916 210.409 420.943 C 207.694 426.522 201.099 429.184 196.925 433.775 C 192.722 438.397 191.162 446.234 185.344 448.51 C 176.818 451.846 165.214 443.565 157.884 449.05 C 138.877 461.964 118.975 481.801 117.148 500.305 M 363.918 -0.005 C 359.117 2.469 351.578 2.426 349.514 7.418 C 343.68 21.527 341.8 37.363 342.155 52.627 C 342.306 59.138 348.535 64.023 350.969 70.064 C 353.585 76.555 353.921 83.942 357.254 90.095 C 360.402 95.907 367.067 99.351 370.032 105.258 C 373.091 111.351 370.166 120.177 374.844 125.137 C 380.304 130.926 391.625 128.078 397.049 133.901 C 399.955 137.021 398.593 144.69 394.723 146.478 C 391.497 147.968 391.736 139.124 388.402 137.895 C 382.138 135.587 374.642 139.162 368.407 136.779 C 361.392 134.098 357.104 126.57 350.324 123.341 C 347.831 122.154 344.771 123.583 342.091 124.248 C 333.316 126.427 321.969 125.013 316.053 131.851 C 304.888 144.757 303.388 163.645 295.102 178.564 C 292.532 183.192 288.28 192.724 283.872 189.793 C 273.44 182.857 266.166 170.23 264.007 157.89 C 262.971 151.968 274.376 150.162 275.923 144.353 C 280.07 128.784 279.54 112.315 280.43 96.228 C 281.581 75.419 283.071 54.542 282.044 33.727 C 283.075 13.888 269.827 8.049 259.732 0.285 M -0.018 275.265 C 28.614 279.998 71.185 270.238 85.879 289.465 C 87.998 292.237 81.352 294.781 78.929 297.291 C 72.883 303.555 62.399 307.288 60.481 315.78 C 58.454 324.755 64.745 333.843 68.812 342.096 C 75.536 355.742 83.251 369.049 92.631 381.026 C 97.183 386.838 107.513 387.788 110.033 394.728 C 112.487 401.487 107.128 408.822 105.245 415.762 C 104.74 417.622 104.393 419.833 102.893 421.044 C 95.425 427.074 88.527 437.083 78.929 437.009 C 68.49 436.928 62.029 417.075 52.221 420.651 C 30.6 428.534 17.395 450.744 -0.018 465.791 M -0.018 198.981 C 4.487 198.559 9.018 198.354 13.498 197.714 C 17.801 197.1 22.281 193.562 26.298 195.223 C 29.78 196.663 29.832 201.88 31.609 205.203 C 32.558 206.977 35.774 208.977 34.476 210.514 C 29.175 216.793 20.661 219.577 14.699 225.232 C 9.076 230.565 4.888 237.231 -0.018 243.23 M 204.832 0.57 C 199.017 6.746 196.341 14.05 210.508 14.389 C 215.305 16.266 220.596 12.299 225.626 11.188 C 229.369 10.362 233.007 8.926 236.824 8.578 C 239.929 8.295 243.186 10.284 246.15 9.315 C 252.282 7.311 256.746 6.471 261.674 8.801 M 411.104 -0.01 C 403.424 2.208 395.762 4.491 388.063 6.645 C 384.638 7.603 379.728 6.378 377.737 9.325 C 368.78 22.585 362.117 37.459 357.005 52.622 C 356.083 55.357 359.579 57.813 360.463 60.561 C 362.645 67.344 362.047 75.355 366.183 81.157 C 379.245 99.48 397.4 113.703 411.081 131.569 C 412.952 134.012 411.04 137.797 411.831 140.771 C 413.036 145.304 416.105 149.254 417.006 153.857 C 417.58 156.79 415.266 159.922 416.137 162.781 C 416.77 164.857 420.249 165.048 421.034 167.071 C 423.14 172.499 424.449 178.379 424.449 184.201 C 424.449 190.086 426.061 198.463 421.034 201.523 C 417.296 203.799 418.912 192.509 415.716 189.518 C 412.255 186.279 406.653 186.533 402.526 184.201 C 400.919 183.293 400.641 180.634 398.902 180.016 C 397.516 179.523 395.947 182.234 394.718 181.424 C 390.086 178.37 387.525 172.829 383.042 169.56 C 372.756 162.06 361.543 155.92 350.668 149.303 C 347.887 147.611 344.854 142.925 342.086 144.639 C 328.87 152.824 316.353 163.173 307.567 175.997 C 300.763 185.928 301.067 199.203 296.952 210.516 C 295.014 215.844 294.696 223.62 289.455 225.784 C 285.973 227.222 286.444 218.801 284.182 215.789 C 280.454 210.824 276.54 205.825 271.623 202.033 C 262.772 195.207 249.804 193.237 243.226 184.201 C 239.915 179.653 245.681 173.214 246.602 167.664 C 247.138 164.432 245.974 160.733 247.593 157.885 C 252.992 148.389 264.252 142.109 267.124 131.569 C 271.74 114.63 267.757 96.441 269.109 78.937 C 269.793 70.085 273.41 61.498 273.221 52.622 C 273.065 45.301 269.676 43.781 268.299 36.589 C 266.315 26.224 267.258 11.227 261.918 9.006 M 499.978 363.296 C 496.498 361.521 493.113 359.547 489.539 357.972 C 488.187 357.376 486.307 357.854 485.263 356.81 C 482.509 354.056 480.969 350.308 478.705 347.138 C 477.1 344.891 476.421 340.666 473.662 340.567 C 471.065 340.474 470.386 344.613 468.968 346.79 C 464.337 353.901 460.646 361.642 455.528 368.411 C 453.366 371.27 450.914 375.044 447.346 375.388 C 438.531 376.238 429.885 371.881 421.031 371.738 C 414.266 371.629 407.626 373.585 400.943 374.639 C 398.851 374.969 396.256 374.438 394.715 375.89 C 388.861 381.407 384.248 388.14 379.629 394.727 C 378.008 397.039 378.411 400.803 376.104 402.431 C 370.637 406.29 363.597 407.257 357.618 410.262 C 353.241 412.462 349.342 415.509 345.125 418.001 C 344.159 418.572 343.022 420.055 342.083 419.441 C 337.204 416.25 332.889 412.122 329.215 407.596 C 324.051 401.234 321.647 392.727 315.767 387.02 C 314.244 385.542 311.693 388.306 309.583 388.542 C 301.472 389.45 293.217 389.073 285.171 390.446 C 277.665 391.727 270.423 398.676 263.136 396.467 C 252.46 393.231 247.909 374.572 236.82 375.789 C 206.629 379.102 213.36 401.842 204.634 415.172 C 203.003 417.663 199.968 418.9 197.9 421.043 C 193.142 425.973 190.358 433.376 184.189 436.358 C 171.529 442.478 154.306 438.404 143.464 447.358 C 126.483 460.854 114.945 481.832 107.137 499.99 M -0.023 266.79 C 26.293 269.726 53.178 269.409 78.924 275.598 C 85.632 277.21 91.827 283.017 94.292 289.461 C 95.595 292.867 89.988 295.371 87.511 298.047 C 81.858 304.154 71.716 307.647 69.934 315.776 C 67.972 324.724 74.03 333.768 77.856 342.092 C 83.323 353.985 89.809 365.523 97.627 376.021 C 102.996 383.23 114.383 386.141 117.052 394.724 C 119.712 403.276 112.54 412.13 111.629 421.04 C 111.341 423.854 114.573 426.691 113.515 429.315 C 112.117 432.781 108.513 435.077 105.24 436.882 C 78.833 451.444 72.6 443.078 61.368 438.596 C 58.123 437.301 56.093 433.104 52.609 432.835 C 48.923 432.551 45.709 435.514 42.385 437.132 C 36.929 439.788 30.553 441.323 26.293 445.645 C 21.472 450.536 20.327 458.106 16.258 463.637 C 13.377 467.553 8.687 469.855 5.675 473.671 C 3.191 476.817 1.876 480.73 -0.023 484.26 M -0.023 172.81 C 2.581 170.438 7.788 169.217 7.788 165.695 C 7.788 161.022 2.581 157.934 -0.023 154.054 M -0.023 188.129 C 3.899 186.82 8.226 186.375 11.743 184.201 C 14.664 182.395 15.627 174.977 18.667 176.574 C 27.349 181.135 32.503 190.541 38.535 198.274 C 41.387 201.93 45.635 205.905 45.144 210.516 C 44.673 214.939 39.332 217.264 36.177 220.4 C 31.774 224.776 26.495 228.286 22.489 233.028 C 18.4 237.869 16.399 244.299 12.076 248.932 C 8.749 252.498 4.01 254.415 -0.023 257.156 M 61.063 -0.014 C 59.212 8.819 62.549 25.069 56.095 30.357 C 52.858 33.009 52.034 34.546 46.197 29.343 C 38.035 22.067 40.323 8.838 36.903 -0.014 M 499.973 358.866 C 496.27 356.978 492.051 355.869 488.864 353.201 C 485.221 350.151 482.738 345.928 479.935 342.092 C 477.663 338.983 477.508 332.393 473.657 332.393 C 468.874 332.393 465.899 338.227 463.081 342.092 C 457.046 350.37 456.118 363.206 447.341 368.49 C 440.503 372.606 431.52 365.91 423.539 365.895 C 417.191 365.883 410.951 367.549 404.662 368.408 C 401.342 368.862 397.172 367.56 394.71 369.834 C 384.551 379.219 379.047 393.091 368.394 401.911 C 364.189 405.392 357.531 403.381 352.301 404.946 C 348.689 406.027 345.816 410.278 342.078 409.786 C 338.555 409.322 336.58 405.237 334.236 402.567 C 327.79 395.224 323.951 385.138 315.762 379.808 C 312.318 377.567 307.866 382.221 303.792 382.754 C 295.675 383.816 287.42 383.527 279.301 384.578 C 276.389 384.955 273.761 386.756 270.836 387.019 C 268.257 387.251 265.315 387.422 263.131 386.031 C 259.623 383.796 258.307 378.952 254.761 376.778 C 250.554 374.199 245.307 373.93 240.665 372.258 C 239.312 371.771 238.25 370.395 236.815 370.313 C 235.563 370.242 234.625 371.99 233.38 371.844 C 216.652 369.882 207.518 388.946 203.351 402.658 C 199.879 414.084 179.317 429.239 169.784 432.956 C 162.994 435.604 155.498 435.933 148.507 437.995 C 142.731 439.698 137.485 443.203 131.552 444.231 C 129.596 444.57 127.978 441.302 126.079 441.882 C 123.768 442.588 122.811 445.45 121.324 447.355 C 118.962 450.381 115.909 453.076 114.544 456.663 C 107.237 475.903 107.045 477.801 99.046 499.987 M 442.326 -0.013 C 430.148 3.681 417.987 7.431 405.792 11.068 C 399.005 13.092 391.1 12.794 385.38 16.972 C 380.229 20.734 377.687 27.339 375.376 33.284 C 372.994 39.409 369.598 46.335 371.52 52.619 C 376.359 68.436 384.188 83.727 394.711 96.489 C 400.217 103.166 412.091 101.99 417.677 108.6 C 422.823 114.689 422.164 123.9 424.353 131.566 C 428.284 145.331 432.647 158.984 436.037 172.892 C 437.594 179.281 437.03 186.151 439.171 192.369 C 440.87 197.303 445.058 201.03 447.342 205.721 C 448.249 207.585 450.087 210.327 448.633 211.804 C 444.125 216.384 437.368 218.004 431.911 221.397 C 428.158 223.731 425.388 229.691 421.027 228.971 C 416.683 228.254 416.595 221.148 413.226 218.314 C 390.169 198.914 367.916 178.053 342.079 162.547 C 338.419 160.35 333.48 165.493 330.996 168.965 C 322.867 180.325 316.914 193.146 311.096 205.845 C 309.441 209.457 308.064 213.617 308.746 217.531 C 309.936 224.36 304.46 243.708 297.787 245.587 C 272.444 252.722 280.34 220.215 263.132 211.784 C 262.415 211.433 261.653 212.388 260.927 212.719 C 255.92 215.003 251.146 217.867 245.932 219.629 C 239.081 221.945 231.606 222.225 224.887 224.9 C 217.095 228.002 210.627 233.992 202.735 236.829 C 200.946 237.472 200.52 233.876 200.871 232.008 C 202.191 224.98 204.826 217.071 207.677 210.513 C 210.419 204.206 218.722 201.475 221.475 195.173 C 226.6 183.441 226.357 169.937 230.667 157.882 C 231.602 155.267 234.981 154.345 236.816 152.26 C 242.714 145.557 251.415 140.164 253.824 131.566 C 258.981 113.161 256.194 93.384 258.623 74.425 C 259.613 66.698 268.653 57.984 264.056 51.695 C 254.604 38.763 266.244 26.949 223.155 26.303 C 218.617 26.235 213.987 28.282 209.572 27.232 C 203.157 25.707 196.101 23.701 191.669 18.818 C 187.182 13.874 187.119 6.264 184.844 -0.013 M -0.026 145.967 C 3.121 146.79 6.771 146.541 9.416 148.435 C 12.632 150.738 14.657 154.434 16.605 157.877 C 17.872 160.117 17.116 163.411 18.925 165.241 C 20.743 167.08 24.674 165.656 26.29 167.674 C 37.052 181.116 46.67 195.53 55.165 210.508 C 55.887 211.781 53.562 212.966 52.606 214.074 C 49.098 218.138 45.408 222.042 41.788 226.006 C 38.483 229.625 33.78 232.327 31.832 236.824 C 30.798 239.212 34.423 241.835 33.835 244.37 C 32.479 250.215 23.404 255.451 26.29 260.712 C 27.898 263.643 43.787 262.172 52.209 263.537 C 64.897 265.593 77.017 270.273 89.421 273.64 C 90.815 274.018 92.582 273.753 93.603 274.774 C 95.221 276.392 95.482 278.961 96.688 280.906 C 98.525 283.868 104.252 286.332 102.707 289.456 C 97.515 299.951 83.472 304.778 79.44 315.771 C 77.107 322.132 83.376 328.763 85.998 335.011 C 91.114 347.2 95.15 360.112 102.625 371.015 C 106.187 376.21 115.426 376.149 118.108 381.848 C 122.253 390.654 120.689 401.153 121.379 410.861 C 121.855 417.553 115.08 429.414 121.602 430.985 C 159.41 440.093 173.251 419.595 194.962 405.496 C 204.968 398.998 203.413 382.851 210.5 373.254 C 213.035 369.82 218.382 369.975 222.351 368.403 C 227.155 366.501 231.738 361.878 236.816 362.833 C 251.564 365.608 263.987 376.777 278.824 379.027 C 289.3 380.616 299.766 375.78 310.204 373.962 C 312.084 373.635 314.234 371.453 315.763 372.594 C 324.146 378.85 330.789 387.157 338.016 394.719 C 339.574 396.349 340.042 399.161 342.079 400.128 C 343.302 400.709 344.414 398.603 345.751 398.39 C 353.599 397.141 362.934 400.324 369.447 395.771 C 379.707 388.6 382.046 373.206 392.218 365.91 C 398.559 361.362 407.731 364.121 415.421 362.797 C 420.348 361.949 425.054 359.894 430.029 359.4 C 433.142 359.091 437.039 362.519 439.358 360.419 C 448.643 352.013 453.399 339.534 462.013 330.442 C 465.04 327.247 469.724 322.243 473.658 324.217 C 480 327.399 480.564 336.736 485.224 342.087 C 489.435 346.922 495.057 350.318 499.974 354.434 M 74.634 -0.016 C 72.326 12.493 69.706 24.949 67.71 37.512 C 66.917 42.507 69.842 49.033 66.273 52.616 C 57.111 61.814 48.646 62.477 39.877 52.616 C 23.956 34.713 25.839 17.528 19.026 -0.016 M 87.069 499.574 C 88.305 491.542 80.887 483.466 81.756 475.478 C 81.869 474.435 83.79 474.629 83.371 473.669 C 82.665 472.051 80.097 472.115 78.921 470.798 C 75.204 466.635 72.846 461.32 68.858 457.416 C 63.992 452.652 59.416 445.082 52.606 445.038 C 45.782 444.994 40.514 451.966 36.142 457.206 C 25.06 470.489 11.737 484.597 6.558 499.267 M 456.868 -0.013 C 456.131 2.426 456.96 6.213 454.658 7.303 C 442.026 13.285 428.241 16.555 414.686 19.962 C 407.141 21.858 396.805 17.407 391.567 23.159 C 384.79 30.6 386.17 42.629 384.944 52.619 C 384.62 55.257 385.829 57.939 387.008 60.321 C 391.269 68.925 395.41 77.723 401.176 85.4 C 403.132 88.004 406.812 88.666 409.582 90.379 C 417.512 95.283 428.318 97.352 433.274 105.25 C 437.952 112.705 433.204 123.05 435.425 131.566 C 437.843 140.839 443.829 148.839 446.999 157.882 C 449.435 164.832 449.917 172.352 452.179 179.361 C 455.589 189.929 465.826 199.563 463.983 210.513 C 462.302 220.503 450.019 225.195 443.203 232.689 C 439.018 237.289 429.808 240.683 430.986 246.789 C 432.664 255.491 427.367 259.626 421.027 254.232 C 416.156 250.088 417.291 241.527 412.953 236.829 C 397.396 219.981 380.368 204.365 362.137 190.455 C 354.475 184.609 344.603 173.782 335.993 178.112 C 325.512 183.383 324.243 198.952 322.251 210.513 C 320.748 219.239 326.602 228.004 325.877 236.829 C 324.413 254.65 317.622 271.726 315.763 289.51 C 314.815 298.577 295.522 308.242 289.448 297.227 C 287.346 293.415 286.452 289.053 284.953 284.966 C 277.68 265.138 273.037 244.136 263.132 225.482 C 261.779 222.934 257.883 227.899 255.162 228.86 C 248.597 231.178 241.193 231.608 235.296 235.309 C 226.015 241.135 220.032 251.488 210.5 256.894 C 207.848 258.398 204.58 255.389 201.711 254.356 C 195.8 252.228 185.663 253.527 184.185 247.421 C 181.892 237.947 190.353 228.926 193.31 219.638 C 194.27 216.622 194.456 213.311 195.935 210.513 C 200.563 201.755 208.706 194.705 211.507 185.204 C 214.082 176.468 207.25 165.963 211.45 157.882 C 217.35 146.531 234.361 143.331 239.385 131.566 C 248.048 111.282 247.017 88.117 250.542 66.344 C 251.278 61.796 254.465 56.612 252.167 52.619 C 237.475 27.088 203.761 47.866 184.185 35.034 C 173.83 28.246 175.978 11.669 171.875 -0.013 M -0.025 137.897 C 2.83 138.643 5.612 140.496 8.541 140.136 C 13.534 139.522 18.856 131.929 22.766 135.095 C 28.364 139.627 24.388 149.882 28.158 156.019 C 31.425 161.337 39.243 162.565 42.795 167.697 C 50.228 178.436 54.724 190.936 60.449 202.675 C 61.688 205.216 64.77 207.91 63.678 210.517 C 58.537 222.789 40.64 233.111 44.746 244.694 C 45.794 247.651 49.75 248.574 52.607 249.871 C 61.188 253.768 69.914 257.442 78.922 260.213 C 86.77 262.628 95.294 262.565 103.009 265.378 C 104.563 265.945 104.622 268.275 105.238 269.81 C 107.848 276.311 112.68 282.459 112.68 289.465 C 112.68 293.234 107.621 295.058 105.238 297.978 C 102.562 301.257 100.272 304.845 97.511 308.053 C 95.155 310.79 90.582 312.23 89.917 315.78 C 89.181 319.708 92.381 323.394 93.949 327.07 C 99.158 339.28 103.019 352.272 110.238 363.412 C 112.347 366.666 117.234 366.756 120.74 368.412 C 123.192 369.57 127.722 369.172 128.11 371.856 C 130.274 386.845 126.841 402.173 127.797 417.287 C 128.002 420.534 128.355 425.704 131.554 426.295 C 140.956 428.031 151.049 426.404 160.073 423.247 C 165.952 421.19 169.047 414.418 174.434 411.292 C 177.306 409.625 181.242 410.789 184.186 409.253 C 187.223 407.668 190.047 405.255 191.727 402.27 C 198.21 390.753 200.072 376.569 208.373 366.284 C 212.59 361.059 220.799 361.19 226.987 358.582 C 230.281 357.194 233.26 353.943 236.817 354.298 C 245.93 355.207 254.306 359.75 263.133 362.189 C 264.878 362.671 267.012 362.012 268.494 363.051 C 270.243 364.278 270.251 367.195 272.007 368.412 C 275.62 370.917 279.638 373.826 284.035 373.826 C 292.292 373.826 300.614 371.658 308.206 368.412 C 311.614 366.955 312.058 360.258 315.764 360.258 C 318.896 360.258 318.275 366.144 320.435 368.412 C 323.98 372.134 328.609 374.649 332.579 377.913 C 337.385 381.864 340.905 387.938 346.757 390.051 C 351.656 391.82 357.12 388.944 362.321 388.653 C 364.344 388.54 366.946 390.254 368.396 388.839 C 376.337 381.088 379.201 367.944 388.957 362.657 C 402.072 355.55 419.775 361.103 432.844 353.913 C 449.102 344.968 456.715 323.622 473.659 316.056 C 479.298 313.538 481.452 325.639 485.235 330.52 C 490.225 336.96 495.062 343.517 499.975 350.016 M 74.375 499.576 C 72.656 488.65 66.513 477.516 61.219 467.108 C 59.973 464.657 54.121 464.319 52.606 462.024 C 46.546 452.843 23.347 485.404 18.948 499.371 M 87.069 -0.009 C 85.54 8.763 82.283 17.405 82.483 26.307 C 82.685 35.285 88.893 43.665 88.253 52.623 C 87.651 61.045 82.855 68.7 78.921 76.171 C 78.097 77.736 76.162 78.978 74.394 78.938 C 59.599 78.601 43.952 80.445 30.167 75.061 C 24.145 72.709 22.822 64.201 20.877 58.035 C 14.88 39.025 11.282 19.339 6.484 -0.009 M 158.864 -0.009 C 166.985 17.855 170.566 38.592 183.228 53.584 C 188.296 59.584 198.807 55.597 206.606 56.522 C 209.487 56.864 212.452 58.087 215.266 57.383 C 217.982 56.703 219.438 53.156 222.187 52.623 C 227.952 51.505 235.929 48.21 239.803 52.623 C 244.61 58.1 240.995 67.152 241.329 74.431 C 241.398 75.935 241.449 77.497 241.011 78.938 C 237.603 90.143 233.315 101.066 229.828 112.247 C 228.809 115.516 229.72 119.643 227.503 122.252 C 222.919 127.645 214.938 129.462 210.505 134.98 C 205.141 141.656 201.048 149.604 198.873 157.886 C 196.642 166.381 199.181 175.567 197.577 184.202 C 196.985 187.388 194.071 189.656 192.45 192.462 C 186.013 203.607 180.235 215.141 173.406 226.05 C 170.952 229.97 165.967 232.392 164.675 236.833 C 163.744 240.035 166.27 243.328 167.477 246.437 C 170.549 254.349 173.791 262.209 177.492 269.846 C 179.374 273.729 180.057 279.682 184.19 280.923 C 188.512 282.221 192.353 277.02 196.635 275.594 C 201.154 274.089 206.281 274.361 210.505 272.161 C 218.001 268.256 224.478 262.638 231.24 257.568 C 233.263 256.051 234.451 253.31 236.821 252.428 C 241.115 250.83 246.012 251.684 250.419 250.431 C 254.86 249.168 259.372 242.272 263.137 244.944 C 268.284 248.596 266.368 257.155 268.343 263.149 C 273.664 279.296 279.162 295.388 285.02 311.348 C 286.205 314.576 286.423 319.037 289.453 320.664 C 297.696 325.09 316.591 321.754 318.114 313.435 C 319.637 305.115 324.918 297.785 326.44 289.465 C 330.832 265.448 331.936 240.928 335.783 216.818 C 337.157 208.208 335.918 197.596 342.084 191.431 C 345.272 188.244 347.088 199.385 351.029 201.573 C 356.256 204.475 363.395 202.771 368.4 206.041 C 374.487 210.018 377.644 217.308 382.861 222.373 C 388.247 227.601 395.692 230.774 400.121 236.833 C 407.017 246.266 410.667 257.689 416.201 267.98 C 417.641 270.659 418.609 273.883 421.032 275.721 C 434.478 285.923 443.716 283.898 447.347 271.426 C 447.945 269.372 449.07 267.492 449.625 265.426 C 451.515 258.389 451.23 250.58 454.67 244.156 C 457.598 238.688 464.036 235.938 467.98 231.15 C 470.427 228.178 471.369 224.187 473.663 221.096 C 475.15 219.092 478.574 218.463 479.19 216.044 C 479.959 213.027 477.717 209.984 477.279 206.902 C 476.165 199.07 476.808 190.906 474.538 183.327 C 472.687 177.146 467.97 172.202 465.15 166.399 C 463.836 163.695 463.602 160.532 462.176 157.886 C 457.434 149.09 449.302 141.853 446.716 132.201 C 444.157 122.648 452.634 110.897 447.347 102.539 C 439.924 90.804 423.138 88.449 413.021 78.938 C 407.681 73.917 405.536 66.33 402.002 59.909 C 400.705 57.553 398.275 55.299 398.538 52.623 C 398.87 49.237 402.292 46.898 403.587 43.751 C 404.503 41.524 403.393 38.389 405.096 36.686 C 406.693 35.09 409.667 36.369 411.776 35.563 C 415.047 34.313 417.607 31.326 421.032 30.597 C 429.653 28.761 438.651 29.428 447.347 27.986 C 454.966 26.723 464.634 28.19 469.858 22.502 C 473.358 18.692 466.561 12.571 466.247 7.407 C 466.09 4.829 467.741 2.463 468.488 -0.009 M 148.168 -0.009 C 150.585 18.352 153.716 36.634 155.42 55.075 C 156.07 62.114 154.809 69.225 155.216 76.282 C 155.451 80.357 160.522 81.016 161.937 80.893 C 183.034 79.061 214.506 79.359 223.831 105.254 C 227.945 116.678 204.179 120.763 198.644 131.57 C 190.317 147.827 190.088 167.207 183.395 184.202 C 178.742 196.017 171.403 206.604 164.816 217.46 C 160.747 224.166 153.259 229.198 151.46 236.833 C 149.667 244.445 154.459 252.244 154.781 260.057 C 154.833 261.328 151.913 262.044 152.544 263.149 C 153.505 264.832 156.681 263.945 157.873 265.473 C 165.314 275.011 171.162 285.692 177.944 295.71 C 179.935 298.652 180.663 303.918 184.189 304.345 C 187.679 304.767 189.186 299.315 192.153 297.429 C 198.007 293.709 204.691 291.404 210.504 287.62 C 219.615 281.689 226.859 272.709 236.82 268.355 C 239.812 267.047 242.714 271.237 245.843 272.172 C 248.176 272.869 251.725 271.184 253.074 273.211 C 261.906 286.482 268.462 301.182 274.866 315.78 C 276.542 319.6 275.64 324.196 277.146 328.086 C 279.082 333.087 289.967 339.944 285.055 342.096 C 270.286 348.566 252.075 340.531 236.82 345.753 C 198.578 358.843 201.179 371.94 194.272 384.644 C 190.935 390.783 189.13 398.08 184.189 403.021 C 181.664 405.546 177.27 405.054 173.702 405.214 C 171.401 405.317 169.145 403.132 166.939 403.794 C 163.438 404.845 160.058 412.896 157.873 409.965 C 148.904 397.935 148.968 380.839 140.559 368.412 C 135.825 361.416 125.455 360.121 119.862 353.791 C 113.403 346.48 109.688 337.12 105.241 328.437 C 103.182 324.416 98.494 319.878 100.395 315.78 C 105.291 305.227 117.29 299.413 123.322 289.465 C 124.972 286.744 122.324 283.172 122.091 279.999 C 121.679 274.393 126.218 266.025 121.388 263.149 C 105.471 253.671 85.246 254.491 67.98 247.778 C 62.392 245.605 56.2 242.286 53.707 236.833 C 52.416 234.008 57.939 232.26 59.724 229.718 C 64.111 223.473 71.956 218.145 72.194 210.517 C 72.491 201.008 64.575 193.076 61.145 184.202 C 58.044 176.177 56.462 167.538 52.61 159.845 C 49.588 153.81 44.076 149.308 40.737 143.443 C 38.659 139.792 37.765 135.579 36.512 131.57 C 35.674 128.889 37.26 123.723 34.47 123.394 C 22.98 122.039 11.475 125.973 -0.022 127.262 M 61.229 499.682 C 59.996 492.141 57.829 478.597 49.841 478.597 C 40.429 478.597 38.347 491.424 36.702 499.579 M 98.982 -0.011 C 97.629 8.761 94.157 17.462 94.923 26.305 C 95.719 35.501 102.849 43.417 103.54 52.621 C 104.042 59.306 100.258 65.625 98.359 72.055 C 97.665 74.406 97.892 77.715 95.766 78.936 C 82.09 86.79 67.899 94.459 52.61 98.329 C 47.639 99.587 42.79 95.349 37.984 93.562 C 31.676 91.217 24.109 90.638 19.287 85.943 C 14.51 81.292 14.222 73.599 11.316 67.598 C 8.493 61.769 3.601 56.787 2.116 50.483 C -0.26 40.399 0.691 29.811 -0.022 19.475 M 331.598 368.415 C 333.559 369.95 335.713 371.266 337.482 373.019 C 339.234 374.755 339.684 378.251 342.086 378.811 C 350.641 380.806 359.767 381.847 368.402 380.23 C 371.205 379.705 376.109 369.534 377.817 367.25 C 385.512 356.962 386.077 359.268 393.997 356.482 C 408.306 351.448 420.086 354.938 433.243 347.389 C 436.106 345.746 437.755 335.49 437.453 332.203 C 436.546 322.327 438.255 311.675 434.188 302.629 C 431.618 296.912 423.163 296.173 419.107 291.394 C 411.834 282.824 406.5 272.77 400.683 263.152 C 398.358 259.307 397.727 254.402 394.718 251.065 C 388.299 243.947 379.889 238.896 372.898 232.34 C 371.084 230.639 370.326 227.961 368.402 226.385 C 332.855 197.276 344.245 275.804 334.291 307.989 C 330.501 320.245 317.039 329.283 316.468 342.099 C 316.018 352.207 326.555 359.643 331.598 368.415 M 479.438 -0.005 C 480.729 3.21 482.279 6.333 483.31 9.64 C 483.915 11.581 483.217 13.948 484.32 15.656 C 486.932 19.701 495.167 21.621 494.075 26.311 C 492.919 31.275 485.232 31.672 480.296 32.941 C 464.142 37.095 447.193 37.828 431.176 42.484 C 424.394 44.455 412.866 45.57 412.574 52.627 C 412.236 60.817 424.105 64.282 430.042 69.934 C 439.033 78.494 451.866 84.119 457.351 95.256 C 462.718 106.155 456.841 119.958 460.398 131.574 C 463.194 140.706 470.045 148.119 475.857 155.698 C 476.913 157.075 479.789 156.345 480.578 157.89 C 481.603 159.898 479.872 162.468 480.429 164.653 C 481.22 167.758 483.874 170.214 484.517 173.353 C 485.243 176.897 483.516 180.707 484.434 184.206 C 486.809 193.263 491.395 201.608 494.265 210.521 C 494.813 212.223 493.684 214.355 494.629 215.873 C 495.788 217.734 498.197 218.422 499.981 219.697 M 499.981 242.288 C 493.034 242.296 484.654 238.086 479.139 242.311 C 469.075 250.02 464.34 262.987 458.365 274.168 C 455.863 278.851 451.302 284.861 453.939 289.469 C 459.352 298.928 472.168 301.944 479.08 310.37 C 487.739 320.925 493.014 333.852 499.981 345.593 M 0.381 112.573 C 9.298 113.7 29.465 106.976 30.387 105.258 C 31.065 103.994 27.722 104.095 26.299 103.918 C 18.675 102.972 8.959 107.14 3.339 101.902 C -0.722 98.117 7.227 91.091 6.615 85.574 C 6.048 80.467 2.194 76.296 -0.017 71.657 M 117.073 -0.005 C 116.885 12.521 116.279 25.047 116.509 37.572 C 116.601 42.615 118.687 47.625 118.038 52.627 C 116.647 63.346 112.713 73.585 110.464 84.158 C 108.886 91.577 108.78 99.321 106.565 106.575 C 106.262 107.568 104.52 107.076 103.484 107.022 C 96.053 106.636 88.644 104.625 81.23 105.258 C 73.371 105.929 65.128 107.032 58.246 110.887 C 54.807 112.814 54.915 118.085 52.617 121.287 C 51.202 123.259 47.25 123.781 47.25 126.208 C 47.25 130.697 51.073 134.344 52.617 138.559 C 56.739 149.813 59.878 161.42 64.238 172.584 C 68.658 183.903 74.154 194.773 78.932 205.946 C 79.945 208.315 81.608 210.621 81.608 213.197 C 81.608 214.404 79.49 214.566 78.932 215.636 C 76.442 220.41 75.192 225.779 72.588 230.492 C 71.249 232.917 66.917 234.084 67.221 236.837 C 67.527 239.605 71.074 241.709 73.85 241.92 C 84.311 242.716 94.801 238.77 105.248 239.731 C 111.242 240.282 116.667 243.656 122.049 246.352 C 125.494 248.077 128.14 254.678 131.564 252.913 C 137.014 250.103 137.445 242.151 140.504 236.837 C 146.217 226.914 152.013 217.039 157.88 207.207 C 162.482 199.495 170.621 193.094 171.908 184.206 C 173.208 175.232 164.282 166.927 165.022 157.89 C 165.391 153.385 172.11 152.135 174.829 148.524 C 178.775 143.282 180.667 136.641 184.835 131.574 C 188.69 126.888 194.342 123.984 198.585 119.647 C 204.089 114.022 220.454 106.272 214.002 101.767 C 196.171 89.316 168.531 98.552 150.648 86.175 C 141.217 79.648 145.886 63.729 143.005 52.627 C 140.705 43.763 136.037 35.422 135.114 26.311 C 134.225 17.543 136.819 8.767 137.671 -0.005 M 122.697 342.095 C 133.154 350.867 145.494 357.791 154.069 368.411 C 159.014 374.535 156.5 384.978 161.926 390.68 C 166.696 395.693 174.683 396.903 181.589 397.333 C 183.994 397.483 185.671 394.399 186.702 392.221 C 189.132 387.086 188.961 380.9 191.716 375.931 C 196.987 366.425 202.689 356.831 210.511 349.284 C 214.778 345.167 221.801 345.312 226.783 342.095 C 228.806 340.789 228.868 337.477 230.87 336.138 C 232.534 335.025 234.884 335.857 236.827 335.377 C 240.176 334.55 243.246 332.467 246.688 332.234 C 249.582 332.038 253.032 336.246 256.813 333.985 C 266.907 327.949 262.045 307.195 253.728 298.879 C 236.394 281.546 215.268 299.354 203.081 308.349 C 196.678 313.075 191.771 325.393 184.196 322.955 C 173.525 319.521 170.609 305.109 164.276 295.86 C 161.825 292.28 162.212 284.772 157.88 284.523 C 150.019 284.071 143.617 291.209 136.356 294.255 C 134.829 294.896 132.598 294.27 131.564 295.563 C 128.441 299.467 127.679 304.892 124.66 308.876 C 122.468 311.768 117.079 312.248 116.242 315.779 C 115.325 319.649 119.424 323.11 120.371 326.973 C 121.586 331.926 121.922 337.054 122.697 342.095 M 326.797 342.095 C 327.199 353.167 334.774 360.27 342.089 367.388 C 342.994 368.269 344.494 368.19 345.738 368.411 C 352.237 369.568 358.76 370.595 365.297 371.519 C 366.323 371.664 367.634 372.306 368.405 371.614 C 373.59 366.962 376.809 360.229 382.444 356.134 C 393.1 348.39 408.399 351.349 421.037 347.635 C 424.429 346.638 431.394 345.378 430.082 342.095 C 419.675 316.06 404.204 292.283 389.394 268.475 C 386.118 263.208 380.658 259.664 376.152 255.401 C 373.659 253.043 370.191 251.551 368.405 248.621 C 346.011 211.871 351.775 284.034 346.556 315.779 C 346.218 317.836 343.485 318.606 342.089 320.152 C 337.632 325.089 328.014 334.613 326.797 342.095 M 499.987 250.17 C 493.694 252.017 487.574 254.613 481.108 255.711 C 471.926 257.27 468.421 276.84 469.99 285.783 C 470.207 287.02 468.621 288.35 469.199 289.464 C 470.063 291.129 472.337 291.56 473.671 292.878 C 477.514 296.674 481.962 300.099 484.689 304.762 C 490.827 315.259 494.888 326.841 499.987 337.88 M 499.987 154.96 C 494.935 152.215 487.057 152.026 484.832 146.725 C 476.368 126.559 475.669 103.926 469.733 82.877 C 468.228 77.541 464.534 73.049 462.59 67.857 C 462.108 66.568 463.538 64.702 462.565 63.729 C 461.19 62.354 458.663 63.091 456.934 62.201 C 452.818 60.082 448.171 57.92 443.561 57.505 C 439.112 57.104 435.129 51.306 444.216 50.052 C 451.309 49.073 463.739 51.714 470.548 49.499 C 481.047 46.083 490.174 39.378 499.987 34.317 M 489.855 -0.009 C 493.232 4.941 496.61 9.892 499.987 14.842 M 65.787 157.882 C 70.184 166.641 75.005 175.199 78.977 184.159 C 81.751 190.417 83.125 197.244 85.991 203.461 C 87.208 206.101 90.029 207.82 91.124 210.513 C 92.62 214.193 90.347 219.888 93.598 222.17 C 99.567 226.359 107.885 225.166 114.89 227.194 C 118.847 228.34 122.415 230.663 126.41 231.669 C 128.08 232.089 130.534 232.769 131.57 231.393 C 134.771 227.141 134.937 221.197 137.713 216.656 C 144.6 205.39 154.323 195.91 160.42 184.198 C 161.464 182.193 158.437 180.1 157.886 177.908 C 155.769 169.485 150.932 160.985 152.435 152.431 C 153.51 146.311 161.058 143.443 164.811 138.491 C 168.644 133.434 170.571 126.909 175.127 122.492 C 177.4 120.288 181.444 121.244 184.202 119.689 C 187.174 118.013 189.32 115.173 191.955 113.004 C 195.169 110.359 205.546 106.947 201.745 105.25 C 183.96 97.311 162.598 99.985 144.845 91.975 C 138.987 89.332 137.481 81.279 135.254 75.251 C 132.995 69.138 138.051 56.739 131.57 56.05 C 125.311 55.385 128.841 68.352 127.011 74.375 C 122.972 87.67 124.688 105.122 113.974 113.97 C 104.969 121.406 90.513 112.521 78.938 114.072 C 74.671 114.644 68.799 116.064 67.561 120.188 C 63.945 132.235 66.378 145.317 65.787 157.882 M 138.375 342.092 C 137.591 348.732 146.286 346.795 151.549 348.429 C 154.437 349.326 155.381 353.227 157.886 354.921 C 160.711 356.831 164.998 356.483 167.25 359.044 C 169.383 361.47 168.413 365.465 169.744 368.408 C 171.18 371.581 171.744 372.583 174.168 375.083 C 176.652 377.644 179.643 382.643 182.923 381.24 C 186.579 379.677 185.132 373.597 186.432 369.839 C 187.762 365.994 191.897 364.587 192.086 360.523 C 192.305 355.822 186.093 350.563 188.883 346.774 C 192.325 342.1 208.253 347.283 205.656 342.092 C 202.381 335.546 191.24 339.424 184.202 337.417 C 181.189 336.558 178.583 334.613 175.642 333.532 C 173.29 332.668 170.469 332.98 168.376 331.602 C 164.387 328.975 162.633 322.366 157.886 321.84 C 152.94 321.292 149.268 326.837 144.78 328.987 C 137.471 332.489 138.553 337.724 138.375 342.092 M 217.831 315.776 C 220.122 319.82 223.276 325.216 227.829 324.781 C 236.793 323.925 249.007 321.09 243.524 309.085 C 241.741 305.181 241.111 298.431 236.833 298.084 C 232.652 297.745 232.432 305.549 228.96 307.903 C 225.045 310.557 215.375 308.528 217.831 315.776 M 337.131 342.092 C 340.749 353.238 356.882 356.084 368.413 358.351 C 372.18 359.092 372.537 351.254 376.068 349.747 C 379.121 348.444 382.654 351.123 385.963 350.859 C 389.001 350.616 391.766 348.97 394.729 348.256 C 403.903 346.046 416.732 349.668 422.358 342.092 C 426.397 336.652 415.698 330.29 412.509 324.312 C 409.442 318.562 406.43 312.78 403.593 306.913 C 400.502 300.52 399.612 292.697 394.729 287.54 C 390.511 283.085 383.209 283.111 377.996 279.878 C 374.337 277.609 371.22 267.962 367.017 268.893 C 362.596 269.872 362.978 278.875 362.304 283.352 C 360.694 294.041 365.96 305.84 361.702 315.776 C 356.975 326.807 338.047 331.927 337.131 342.092 M 499.991 258.054 C 495.516 259.751 488.738 258.88 486.566 263.145 C 482.566 270.999 482.738 280.738 483.997 289.461 C 484.536 293.197 489.728 294.583 491.579 297.873 C 495.128 304.182 497.187 311.221 499.991 317.895 M 499.991 44.975 C 495.617 47.523 488.417 47.799 486.869 52.619 C 482.538 66.103 483.751 80.842 483.922 95.003 C 483.966 98.621 487.442 101.632 487.503 105.25 C 487.651 114.076 484.282 123.132 486.89 131.566 C 488.948 138.222 494.839 140.947 499.991 145.637 M 72.631 157.882 C 76.872 164.515 81.886 170.712 85.354 177.78 C 86.297 179.701 84.612 182.272 85.545 184.198 C 89.993 193.385 95.745 201.887 101.201 210.513 C 102.326 212.292 103.147 215.357 105.252 215.357 C 110.588 215.357 115.431 212.153 120.508 210.513 C 123.281 209.617 126.549 209.597 128.803 207.749 C 133.612 203.807 137.133 198.508 141.048 193.677 C 143.501 190.65 147.669 188.088 147.886 184.198 C 148.383 175.293 143.791 166.77 143.046 157.882 C 142.673 153.429 143.39 148.873 144.563 144.561 C 145.803 140.004 150.481 136.28 150.206 131.566 C 149.672 122.419 146.945 113.129 142.268 105.25 C 140.735 102.668 136.114 104.765 133.461 103.358 C 132.216 102.698 132.826 98.941 131.568 99.577 C 129.793 100.474 130.77 103.562 129.718 105.25 C 124.088 114.283 121.676 128.046 111.631 131.566 C 101.003 135.291 88.272 116.748 78.936 123.047 C 69.154 129.647 74.733 146.27 72.631 157.882 M 173.701 105.25 C 176.243 106.208 178.636 108.488 181.328 108.124 C 182.792 107.926 184.333 104.521 182.951 104 C 180.039 102.903 176.784 104.833 173.701 105.25 M 367.651 342.09 C 368.353 347.729 385.62 344.058 394.725 344.024 C 397.906 344.012 402.153 344.628 404.071 342.09 C 405.45 340.265 401.488 338.259 400.706 336.109 C 398.239 329.329 401.464 314.132 394.365 315.415 C 381.977 317.654 365.112 328.982 367.651 342.09 M 499.991 59.86 C 497.798 64.025 493.413 67.647 493.413 72.354 C 493.413 81.37 497.798 89.845 499.991 98.59 M 92.111 184.195 C 96.49 190.948 98.383 200.254 105.249 204.453 C 108.807 206.629 114.465 202.756 116.591 199.168 C 124.745 185.407 130.359 170.126 134.71 154.733 C 135.535 151.813 134.375 147.335 131.565 146.189 C 128.916 145.108 126.877 149.769 124.086 150.399 C 120.376 151.236 116.458 150.043 112.677 150.451 C 110.129 150.726 107.811 152.402 105.249 152.431 C 102.754 152.459 100.402 149.99 97.987 150.617 C 92.976 151.918 85.75 152.921 84.257 157.879 C 82.773 162.809 90.257 166.464 91.73 171.398 C 92.95 175.487 91.984 179.929 92.111 184.195 M 98.68 184.195 C 100.87 187.571 101.326 195.221 105.249 194.324 C 127.121 189.322 121.488 177.61 105.249 168.609 C 100.318 165.876 100.87 179 98.68 184.195"
></path>
</svg>