<svg width="60" height="60" viewBox="0 0 60 60" fill="none" xmlns="http://www.w3.org/2000/svg">
<circle cx="30" cy="30" r="30" fill="white"/>
<path d="M30 0C13.4193 0 0 13.442 0 30C0 46.558 13.442 60 30 60C46.558 60 60 46.558 60 30C60 13.4193 46.558 0 30 0ZM45.6255 24.7005C46.649 24.7005 47.4905 25.5421 47.4905 26.5656C47.4905 27.5891 46.649 28.4306 45.6255 28.4306C44.602 28.4306 43.7604 27.5891 43.7604 26.5656C43.7604 25.5421 44.602 24.7005 45.6255 24.7005ZM26.6566 32.5701H25.8378V38.5292H24.4958L23.5178 36.4594C22.4261 37.9151 20.4701 38.8931 18.3548 38.8931C14.0788 38.8931 10.2123 35.6634 10.2123 29.9545C10.2123 24.2684 14.6929 21.0159 19.0144 21.0159C23.5861 21.0159 25.9515 24.0864 25.9515 26.6338C25.9515 27.6118 25.1554 28.4079 24.1774 28.4079C23.1994 28.4079 22.4033 27.6118 22.4033 26.6338C22.4033 25.7013 23.1084 24.9507 24.0182 24.8597C23.6543 23.3814 21.4708 22.1986 19.1964 22.1986C15.5572 22.1986 13.5785 25.2464 13.5785 29.9318C13.5785 34.4807 15.6482 37.5739 18.423 37.5739C20.7202 37.5739 22.8355 36.2093 22.8355 34.185V32.5474H20.6975V31.3647H26.6566V32.5701ZM37.2782 38.9386C34.4579 38.9386 34.4579 37.2782 32.6156 37.2782C31.0008 37.2782 29.6816 38.5519 29.6816 38.5519H27.9303C28.3397 35.1857 30.9553 34.2077 34.5716 31.3874C36.1183 30.182 37.5739 28.5671 37.5739 26.1562C37.5739 24.8597 37.028 22.1986 34.1168 22.1986C32.0925 22.1986 30.5004 23.2904 30.2502 24.6778C31.2282 24.7233 32.0243 25.5421 32.0243 26.5428C32.0243 27.5663 31.1827 28.4079 30.1592 28.4079C29.1357 28.4079 28.2942 27.5663 28.2942 26.5428C28.2942 24.2002 30.4321 21.0159 34.276 21.0159C38.5292 21.0159 40.6672 23.7908 40.6672 26.2472C40.6672 32.6384 31.8196 33.8438 30.8415 36.4594C30.8415 36.4594 32.138 35.8226 33.298 35.8226C34.9356 35.8226 35.4814 36.8461 37.0053 36.8461C38.279 36.8461 39.348 36.2547 39.348 34.9356H41.5087C41.5087 36.5504 40.5989 38.9386 37.2782 38.9386ZM49.1054 38.5519H43.1691V37.3692H44.8749V31.0008H43.1691V29.8635L47.3995 29.8863V31.0235V37.392H49.1054V38.5519Z" fill="#FF2A2A"/>
</svg>
