<svg xmlns="http://www.w3.org/2000/svg" viewBox="0 0 550 280">
  <path d="M 207.846 62.65 Q 214.626 65.814 218.525 72.029 Q 222.423 78.244 222.423 85.815 Q 222.423 94.629 217.056 101.579 Q 211.688 108.528 203.326 110.788 L 223.327 138.699 L 218.355 138.699 L 199.032 111.579 L 195.416 111.692 L 167.053 111.692 L 167.053 138.699 L 162.872 138.699 L 162.872 60.051 L 192.817 60.051 Q 197.789 60.051 201.349 60.673 Q 204.908 61.294 207.846 62.65 Z M 196.546 107.511 Q 202.422 107.511 207.394 104.573 Q 212.366 101.635 215.304 96.663 Q 218.242 91.691 218.242 85.815 Q 218.242 79.261 214.796 73.95 Q 211.349 68.639 205.247 66.04 Q 200.84 64.232 192.817 64.232 L 167.053 64.232 L 167.053 107.511 Z M 247.28 60.051 L 302.65 60.051 L 302.65 64.232 L 251.461 64.232 L 251.461 96.098 L 295.983 96.098 L 295.983 100.279 L 251.461 100.279 L 251.461 134.518 L 302.65 134.518 L 302.65 138.699 L 247.28 138.699 Z M 327.281 138.699 L 327.281 60.051 L 331.688 60.051 L 386.606 113.387 L 386.606 60.051 L 390.787 60.051 L 390.787 138.699 L 386.606 138.699 L 386.606 119.263 L 331.462 65.475 L 331.462 138.699 Z M 439.487 60.051 L 443.894 60.051 L 476.212 138.699 L 471.692 138.699 L 461.07 112.709 L 422.311 112.709 L 411.576 138.699 L 407.169 138.699 Z M 424.006 108.641 L 459.375 108.641 L 441.634 65.475 Z M 557.004 60.051 L 557.004 64.232 L 527.285 64.232 L 527.285 138.699 L 523.217 138.699 L 523.217 64.232 L 493.498 64.232 L 493.498 60.051 Z M 608.867 58.356 Q 617.681 58.356 625.139 62.707 Q 632.597 67.057 636.948 74.515 Q 641.298 81.973 641.298 90.787 L 641.298 107.963 Q 641.298 116.777 636.948 124.235 Q 632.597 131.693 625.139 136.044 Q 617.681 140.394 608.867 140.394 Q 600.053 140.394 592.595 136.044 Q 585.137 131.693 580.787 124.235 Q 576.436 116.777 576.436 107.963 L 576.436 90.787 Q 576.436 81.973 580.787 74.515 Q 585.137 67.057 592.595 62.707 Q 600.053 58.356 608.867 58.356 Z M 580.617 107.963 Q 580.617 115.647 584.403 122.145 Q 588.188 128.642 594.686 132.428 Q 601.183 136.213 608.867 136.213 Q 616.551 136.213 623.049 132.428 Q 629.546 128.642 633.332 122.145 Q 637.117 115.647 637.117 107.963 L 637.117 90.787 Q 637.117 83.103 633.332 76.606 Q 629.546 70.108 623.049 66.323 Q 616.551 62.537 608.867 62.537 Q 601.183 62.537 594.686 66.323 Q 588.188 70.108 584.403 76.606 Q 580.617 83.103 580.617 90.787 L 580.617 107.963 Z" transform="matrix(1, 0, 0, 1, -135.862564, -28.101076)" style="fill: gray;"></path>
  <path d="M 196.32 173.051 Q 203.778 173.051 208.185 175.311 Q 213.496 178.023 216.377 182.769 Q 219.259 187.515 219.259 193.391 Q 219.259 198.928 216.321 203.618 Q 213.383 208.307 208.298 211.019 Q 214.4 213.166 218.581 218.477 Q 222.762 223.788 222.762 230.455 Q 222.762 236.331 219.767 241.247 Q 216.773 246.162 211.801 248.987 Q 209.315 250.343 206.264 251.021 Q 203.213 251.699 198.128 251.699 L 163.324 251.699 L 163.324 173.051 Z M 274.4 171.356 Q 283.214 171.356 290.672 175.707 Q 298.13 180.057 302.48 187.515 Q 306.831 194.973 306.831 203.787 L 306.831 220.963 Q 306.831 229.777 302.48 237.235 Q 298.13 244.693 290.672 249.044 Q 283.214 253.394 274.4 253.394 Q 265.586 253.394 258.128 249.044 Q 250.67 244.693 246.319 237.235 Q 241.969 229.777 241.969 220.963 L 241.969 203.787 Q 241.969 194.973 246.319 187.515 Q 250.67 180.057 258.128 175.707 Q 265.586 171.356 274.4 171.356 Z M 246.15 220.963 Q 246.15 228.647 249.935 235.145 Q 253.721 241.642 260.218 245.428 Q 266.716 249.213 274.4 249.213 Q 282.084 249.213 288.581 245.428 Q 295.079 241.642 298.864 235.145 Q 302.65 228.647 302.65 220.963 L 302.65 203.787 Q 302.65 196.103 298.864 189.606 Q 295.079 183.108 288.581 179.323 Q 282.084 175.537 274.4 175.537 Q 266.716 175.537 260.218 179.323 Q 253.721 183.108 249.935 189.606 Q 246.15 196.103 246.15 203.787 L 246.15 220.963 Z M 261.744 146.496 Q 265.586 146.496 268.298 149.208 Q 271.01 151.92 271.01 155.762 Q 271.01 159.604 268.298 162.26 Q 265.586 164.915 261.744 164.915 Q 257.902 164.915 255.246 162.26 Q 252.591 159.604 252.591 155.762 Q 252.591 151.92 255.246 149.208 Q 257.902 146.496 261.744 146.496 Z M 286.83 164.915 Q 282.988 164.915 280.332 162.26 Q 277.677 159.604 277.677 155.762 Q 277.677 151.92 280.332 149.208 Q 282.988 146.496 286.83 146.496 Q 290.672 146.496 293.384 149.208 Q 296.096 151.92 296.096 155.762 Q 296.096 159.604 293.384 162.26 Q 290.672 164.915 286.83 164.915 Z M 261.744 161.073 Q 264.004 161.073 265.529 159.491 Q 267.055 157.909 267.055 155.762 Q 267.055 153.502 265.529 151.92 Q 264.004 150.338 261.744 150.338 Q 259.484 150.338 257.958 151.92 Q 256.433 153.502 256.433 155.762 Q 256.433 157.909 258.015 159.491 Q 259.597 161.073 261.744 161.073 Z M 286.83 150.338 Q 284.57 150.338 283.044 151.92 Q 281.519 153.502 281.519 155.762 Q 281.519 157.909 283.101 159.491 Q 284.683 161.073 286.83 161.073 Q 289.09 161.073 290.615 159.491 Q 292.141 157.909 292.141 155.762 Q 292.141 153.502 290.615 151.92 Q 289.09 150.338 286.83 150.338 Z M 327.733 251.699 L 327.733 173.051 L 331.914 173.051 L 331.914 210.228 L 384.12 210.228 L 384.12 173.051 L 388.301 173.051 L 388.301 251.699 L 384.12 251.699 L 384.12 214.409 L 331.914 214.409 L 331.914 251.699 Z M 417.339 251.699 L 417.339 173.051 L 421.52 173.051 L 421.52 247.518 L 476.325 247.518 L 476.325 251.699 Z M 498.131 173.051 L 553.501 173.051 L 553.501 177.232 L 502.312 177.232 L 502.312 209.098 L 546.834 209.098 L 546.834 213.279 L 502.312 213.279 L 502.312 247.518 L 553.501 247.518 L 553.501 251.699 L 498.131 251.699 Z M 625.93 175.65 Q 632.71 178.814 636.609 185.029 Q 640.507 191.244 640.507 198.815 Q 640.507 207.629 635.14 214.579 Q 629.772 221.528 621.41 223.788 L 641.411 251.699 L 636.439 251.699 L 617.116 224.579 L 613.5 224.692 L 585.137 224.692 L 585.137 251.699 L 580.956 251.699 L 580.956 173.051 L 610.901 173.051 Q 615.873 173.051 619.433 173.673 Q 622.992 174.294 625.93 175.65 Z M 614.63 220.511 Q 620.506 220.511 625.478 217.573 Q 630.45 214.635 633.388 209.663 Q 636.326 204.691 636.326 198.815 Q 636.326 192.261 632.88 186.95 Q 629.433 181.639 623.331 179.04 Q 618.924 177.232 610.901 177.232 L 585.137 177.232 L 585.137 220.511 Z" transform="matrix(1, 0, 0, 1, -135.862564, -28.101076)" style="fill: gray;"></path>
  <path d="M 147.158 249.155 L 161.69 249.155 L 161.69 250.191 L 148.194 250.191 L 148.194 258.367 L 159.114 258.367 L 159.114 259.403 L 148.194 259.403 L 148.194 268.643 L 147.158 268.643 Z M 178.564 249.799 Q 180.244 250.583 181.21 252.123 Q 182.176 253.663 182.176 255.539 Q 182.176 257.723 180.846 259.445 Q 179.516 261.167 177.444 261.727 L 182.4 268.643 L 181.168 268.643 L 176.38 261.923 L 175.484 261.951 L 168.456 261.951 L 168.456 268.643 L 167.42 268.643 L 167.42 249.155 L 174.84 249.155 Q 176.072 249.155 176.954 249.309 Q 177.836 249.463 178.564 249.799 Z M 175.764 260.915 Q 177.22 260.915 178.452 260.187 Q 179.684 259.459 180.412 258.227 Q 181.14 256.995 181.14 255.539 Q 181.14 253.915 180.286 252.599 Q 179.432 251.283 177.92 250.639 Q 176.828 250.191 174.84 250.191 L 168.456 250.191 L 168.456 260.915 Z M 195.046 248.735 Q 197.23 248.735 199.078 249.813 Q 200.926 250.891 202.004 252.739 Q 203.082 254.587 203.082 256.771 L 203.082 261.027 Q 203.082 263.211 202.004 265.059 Q 200.926 266.907 199.078 267.985 Q 197.23 269.063 195.046 269.063 Q 192.862 269.063 191.014 267.985 Q 189.166 266.907 188.088 265.059 Q 187.01 263.211 187.01 261.027 L 187.01 256.771 Q 187.01 254.587 188.088 252.739 Q 189.166 250.891 191.014 249.813 Q 192.862 248.735 195.046 248.735 Z M 188.046 261.027 Q 188.046 262.931 188.984 264.541 Q 189.922 266.151 191.532 267.089 Q 193.142 268.027 195.046 268.027 Q 196.95 268.027 198.56 267.089 Q 200.17 266.151 201.108 264.541 Q 202.046 262.931 202.046 261.027 L 202.046 256.771 Q 202.046 254.867 201.108 253.257 Q 200.17 251.647 198.56 250.709 Q 196.95 249.771 195.046 249.771 Q 193.142 249.771 191.532 250.709 Q 189.922 251.647 188.984 253.257 Q 188.046 254.867 188.046 256.771 L 188.046 261.027 Z M 208.14 268.643 L 208.14 249.155 L 209.232 249.155 L 222.84 262.371 L 222.84 249.155 L 223.876 249.155 L 223.876 268.643 L 222.84 268.643 L 222.84 263.827 L 209.176 250.499 L 209.176 268.643 Z M 244.334 249.155 L 244.334 250.191 L 236.97 250.191 L 236.97 268.643 L 235.962 268.643 L 235.962 250.191 L 228.598 250.191 L 228.598 249.155 Z M 250.471 249.155 L 264.191 249.155 L 264.191 250.191 L 251.507 250.191 L 251.507 258.087 L 262.539 258.087 L 262.539 259.123 L 251.507 259.123 L 251.507 267.607 L 264.191 267.607 L 264.191 268.643 L 250.471 268.643 Z M 270.285 268.643 L 270.285 249.155 L 271.377 249.155 L 284.985 262.371 L 284.985 249.155 L 286.021 249.155 L 286.021 268.643 L 284.985 268.643 L 284.985 263.827 L 271.321 250.499 L 271.321 268.643 Z M 298.415 249.155 Q 300.543 249.155 302.349 250.219 Q 304.155 251.283 305.219 253.089 Q 306.283 254.895 306.283 257.023 L 306.283 260.775 Q 306.283 262.903 305.219 264.709 Q 304.155 266.515 302.349 267.579 Q 300.543 268.643 298.415 268.643 L 291.219 268.643 L 291.219 249.155 L 298.415 249.155 Z M 305.247 257.023 Q 305.247 255.175 304.323 253.607 Q 303.399 252.039 301.817 251.115 Q 300.235 250.191 298.387 250.191 L 292.255 250.191 L 292.255 267.607 L 298.387 267.607 Q 300.235 267.607 301.817 266.683 Q 303.399 265.759 304.323 264.191 Q 305.247 262.623 305.247 260.775 Z M 339.85 249.155 Q 341.978 249.155 343.784 250.219 Q 345.59 251.283 346.654 253.089 Q 347.718 254.895 347.718 257.023 L 347.718 260.775 Q 347.718 262.903 346.654 264.709 Q 345.59 266.515 343.784 267.579 Q 341.978 268.643 339.85 268.643 L 332.654 268.643 L 332.654 249.155 L 339.85 249.155 Z M 346.682 257.023 Q 346.682 255.175 345.758 253.607 Q 344.834 252.039 343.252 251.115 Q 341.67 250.191 339.822 250.191 L 333.69 250.191 L 333.69 267.607 L 339.822 267.607 Q 341.67 267.607 343.252 266.683 Q 344.834 265.759 345.758 264.191 Q 346.682 262.623 346.682 260.775 Z M 354.036 249.155 L 367.756 249.155 L 367.756 250.191 L 355.072 250.191 L 355.072 258.087 L 366.104 258.087 L 366.104 259.123 L 355.072 259.123 L 355.072 267.607 L 367.756 267.607 L 367.756 268.643 L 354.036 268.643 Z M 373.99 249.155 L 381.438 267.271 L 388.886 249.155 L 389.978 249.155 L 381.97 268.643 L 380.878 268.643 L 372.87 249.155 Z M 395.456 249.155 L 409.176 249.155 L 409.176 250.191 L 396.492 250.191 L 396.492 258.087 L 407.524 258.087 L 407.524 259.123 L 396.492 259.123 L 396.492 267.607 L 409.176 267.607 L 409.176 268.643 L 395.456 268.643 Z M 416.881 268.643 L 416.881 249.155 L 417.917 249.155 L 417.917 267.607 L 431.497 267.607 L 431.497 268.643 Z M 443.611 248.735 Q 445.795 248.735 447.643 249.813 Q 449.491 250.891 450.569 252.739 Q 451.647 254.587 451.647 256.771 L 451.647 261.027 Q 451.647 263.211 450.569 265.059 Q 449.491 266.907 447.643 267.985 Q 445.795 269.063 443.611 269.063 Q 441.427 269.063 439.579 267.985 Q 437.731 266.907 436.653 265.059 Q 435.575 263.211 435.575 261.027 L 435.575 256.771 Q 435.575 254.587 436.653 252.739 Q 437.731 250.891 439.579 249.813 Q 441.427 248.735 443.611 248.735 Z M 436.611 261.027 Q 436.611 262.931 437.549 264.541 Q 438.487 266.151 440.097 267.089 Q 441.707 268.027 443.611 268.027 Q 445.515 268.027 447.125 267.089 Q 448.735 266.151 449.673 264.541 Q 450.611 262.931 450.611 261.027 L 450.611 256.771 Q 450.611 254.867 449.673 253.257 Q 448.735 251.647 447.125 250.709 Q 445.515 249.771 443.611 249.771 Q 441.707 249.771 440.097 250.709 Q 438.487 251.647 437.549 253.257 Q 436.611 254.867 436.611 256.771 L 436.611 261.027 Z M 458.889 268.643 L 457.853 268.643 L 457.853 249.155 L 465.693 249.155 Q 467.653 249.155 469.319 249.995 Q 470.985 250.835 471.965 252.375 Q 472.945 253.915 472.945 255.931 Q 472.945 257.863 471.951 259.487 Q 470.957 261.111 469.249 261.979 Q 467.765 262.735 465.693 262.735 L 458.889 262.735 Z M 458.889 261.699 L 465.693 261.699 Q 467.485 261.699 468.633 261.139 Q 470.117 260.439 471.013 259.039 Q 471.909 257.639 471.909 255.931 Q 471.909 254.251 471.013 252.851 Q 470.117 251.451 468.605 250.751 Q 467.457 250.191 465.693 250.191 L 458.889 250.191 Z M 478.31 249.155 L 492.03 249.155 L 492.03 250.191 L 479.346 250.191 L 479.346 258.087 L 490.378 258.087 L 490.378 259.123 L 479.346 259.123 L 479.346 267.607 L 492.03 267.607 L 492.03 268.643 L 478.31 268.643 Z M 509.968 249.799 Q 511.648 250.583 512.614 252.123 Q 513.58 253.663 513.58 255.539 Q 513.58 257.723 512.25 259.445 Q 510.92 261.167 508.848 261.727 L 513.804 268.643 L 512.572 268.643 L 507.784 261.923 L 506.888 261.951 L 499.86 261.951 L 499.86 268.643 L 498.824 268.643 L 498.824 249.155 L 506.244 249.155 Q 507.476 249.155 508.358 249.309 Q 509.24 249.463 509.968 249.799 Z M 507.168 260.915 Q 508.624 260.915 509.856 260.187 Q 511.088 259.459 511.816 258.227 Q 512.544 256.995 512.544 255.539 Q 512.544 253.915 511.69 252.599 Q 510.836 251.283 509.324 250.639 Q 508.232 250.191 506.244 250.191 L 499.86 250.191 L 499.86 260.915 Z" style="fill: rgb(128, 128, 128);"></path>
  <path d="M 519.056 268.713 L 534.064 268.713 L 534.064 269.749 L 519.056 269.749 Z" style="fill: rgb(128, 128, 128);">
    <animate attributeName="opacity" dur="1s" values="0;1;0" repeatCount="indefinite" />
  </path>
</svg>